<svg xmlns="http://www.w3.org/2000/svg" id="export" class="canvas" preserveAspectRatio="xMidYMid meet" style="" width="1983" height="173"><rect id="background" fill="#fff" pointer-events="all" width="1983" height="173"/><g id="origin" transform="translate(7.8500000000000005, 7.8500000000000005) scale(1)"><g id="clusters" class="clusters"/><g id="edge-paths" class="edge-paths" style="pointer-events: none;"><defs><marker id="arrowhead" viewBox="0 0 10 10" refX="9" refY="5" markerUnits="strokeWidth" markerWidth="8" markerHeight="6" orient="auto" style="fill: rgb(0, 0, 0);"><path d="M 0 0 L 10 5 L 0 10 L 4 5 z" style="stroke-width: 1px;"/></marker><marker id="arrowhead-select" viewBox="0 0 10 10" refX="9" refY="5" markerUnits="strokeWidth" markerWidth="8" markerHeight="6" orient="auto" style="fill: rgba(220, 0, 0, 0.9);"><path d="M 0 0 L 10 5 L 0 10 L 4 5 z" style="stroke-width: 1px;"/></marker><marker id="arrowhead-hover" viewBox="0 0 10 10" refX="9" refY="5" markerUnits="strokeWidth" markerWidth="8" markerHeight="6" orient="auto" style="fill: rgba(220, 0, 0, 0.9);"><path d="M 0 0 L 10 5 L 0 10 L 4 5 z" style="stroke-width: 1px;"/></marker></defs><path id="edge-onnx::Flatten_0" class="edge-path" d="M90.91200256347656,78.5L92.57866923014323,78.5C94.24533589680989,78.5,97.57866923014323,78.5,106.73866907755534,78.5C115.89866892496745,78.5,130.88533528645834,78.5,145.87200164794922,78.5C160.8586680094401,78.5,175.845334370931,78.5,185.0053342183431,78.5C194.16533406575522,78.5,197.49866739908853,78.5,199.16533406575522,78.5L200.83200073242188,78.5" style="stroke: rgb(0, 0, 0); stroke-width: 1px; fill: none; marker-end: url(&quot;#arrowhead&quot;);"/><path id="edge-/Flatten_output_0" class="edge-path" d="M254.7509994506836,78.5L263.3118324279785,78.5C271.87266540527344,78.5,288.9943313598633,78.5,306.1159973144531,78.5C323.23766326904297,78.5,340.3593292236328,78.5,348.92016220092773,78.5L357.48099517822266,78.5" style="stroke: rgb(0, 0, 0); stroke-width: 1px; fill: none; marker-end: url(&quot;#arrowhead&quot;);"/><path id="edge-/l1/Gemm_output_0" class="edge-path" d="M432.48099517822266,78.5L441.7993284861247,78.5C451.1176617940267,78.5,469.75432840983075,78.5,488.39099502563477,78.5C507.0276616414388,78.5,525.6643282572428,78.5,534.9826615651449,78.5L544.3009948730469,78.5" style="stroke: rgb(0, 0, 0); stroke-width: 1px; fill: none; marker-end: url(&quot;#arrowhead&quot;);"/><path id="edge-/Relu_output_0" class="edge-path" d="M579.71158243217,88.65999984741211L588.1438177906633,94.34166653951009C596.5760531491566,100.02333323160808,613.4405238661433,111.38666661580403,635.6794259167345,117.06833330790202C657.9183279673258,122.75,685.5316613515218,122.75,715.222494761149,122.75C744.9133281707764,122.75,776.681661605835,122.75,806.5557451248169,122.75C836.4298286437988,122.75,864.4096622467041,122.75,891.191162109375,122.75C917.9726619720459,122.75,943.5558280944824,122.75,964.7832441329956,122.75C986.0106601715088,122.75,1002.8823261260986,122.75,1011.3181591033936,122.75L1019.7539920806885,122.75" style="stroke: rgb(0, 0, 0); stroke-width: 1px; fill: none; marker-end: url(&quot;#arrowhead&quot;);"/><path id="edge-/Relu_output_0" class="edge-path" d="M579.71158243217,68.34000015258789L588.1438177906633,62.65833346048991C596.5760531491566,56.97666676839193,613.4405238661433,45.61333338419596,629.4294259167345,39.931666692097984C645.4183279673258,34.25,660.5316613515218,34.25,668.0883280436198,34.25L675.6449947357178,34.25" style="stroke: rgb(0, 0, 0); stroke-width: 1px; fill: none; marker-end: url(&quot;#arrowhead&quot;);"/><path id="edge-/ll1/Gemm_output_0" class="edge-path" d="M1094.7539920806885,122.75L1104.3881587982178,122.75C1114.022325515747,122.75,1133.2906589508057,122.75,1152.5589923858643,122.75C1171.8273258209229,122.75,1191.0956592559814,122.75,1200.7298259735107,122.75L1210.36399269104,122.75" style="stroke: rgb(0, 0, 0); stroke-width: 1px; fill: none; marker-end: url(&quot;#arrowhead&quot;);"/><path id="edge-/Relu_1_output_0" class="edge-path" d="M1262.6329936981201,122.75L1271.068826675415,122.75C1279.50465965271,122.75,1296.3763256072998,122.75,1313.2479915618896,122.75C1330.1196575164795,122.75,1346.9913234710693,122.75,1355.4271564483643,122.75L1363.8629894256592,122.75" style="stroke: rgb(0, 0, 0); stroke-width: 1px; fill: none; marker-end: url(&quot;#arrowhead&quot;);"/><path id="edge-/ll2/Gemm_output_0" class="edge-path" d="M1438.8629894256592,122.75L1448.4971561431885,122.75C1458.1313228607178,122.75,1477.3996562957764,122.75,1496.667989730835,122.75C1515.9363231658936,122.75,1535.2046566009521,122.75,1544.8388233184814,122.75L1554.4729900360107,122.75" style="stroke: rgb(0, 0, 0); stroke-width: 1px; fill: none; marker-end: url(&quot;#arrowhead&quot;);"/><path id="edge-/Relu_2_output_0" class="edge-path" d="M1606.7419910430908,122.75L1615.1778240203857,122.75C1623.6136569976807,122.75,1640.4853229522705,122.75,1657.8689782294223,117.06833330790202C1675.2526335065738,111.38666661580403,1693.148278106287,100.02333323160808,1702.096100406144,94.34166653951009L1711.0439227060006,88.65999984741211" style="stroke: rgb(0, 0, 0); stroke-width: 1px; fill: none; marker-end: url(&quot;#arrowhead&quot;);"/><path id="edge-/lr1/Gemm_output_0" class="edge-path" d="M750.6449947357178,34.25L760.2791614532471,34.25C769.9133281707764,34.25,789.181661605835,34.25,808.4499950408936,34.25C827.7183284759521,34.25,846.9866619110107,34.25,856.62082862854,34.25L866.2549953460693,34.25" style="stroke: rgb(0, 0, 0); stroke-width: 1px; fill: none; marker-end: url(&quot;#arrowhead&quot;);"/><path id="edge-/Relu_3_output_0" class="edge-path" d="M918.5239963531494,34.25L926.9598293304443,34.25C935.3956623077393,34.25,952.2673282623291,34.25,969.138994216919,34.25C986.0106601715088,34.25,1002.8823261260986,34.25,1011.3181591033936,34.25L1019.7539920806885,34.25" style="stroke: rgb(0, 0, 0); stroke-width: 1px; fill: none; marker-end: url(&quot;#arrowhead&quot;);"/><path id="edge-/lr2/Gemm_output_0" class="edge-path" d="M1094.7539920806885,34.25L1104.3881587982178,34.25C1114.022325515747,34.25,1133.2906589508057,34.25,1152.5589923858643,34.25C1171.8273258209229,34.25,1191.0956592559814,34.25,1200.7298259735107,34.25L1210.36399269104,34.25" style="stroke: rgb(0, 0, 0); stroke-width: 1px; fill: none; marker-end: url(&quot;#arrowhead&quot;);"/><path id="edge-/Relu_4_output_0" class="edge-path" d="M1262.6329936981201,34.25L1271.068826675415,34.25C1279.50465965271,34.25,1296.3763256072998,34.25,1313.2479915618896,34.25C1330.1196575164795,34.25,1346.9913234710693,34.25,1355.4271564483643,34.25L1363.8629894256592,34.25" style="stroke: rgb(0, 0, 0); stroke-width: 1px; fill: none; marker-end: url(&quot;#arrowhead&quot;);"/><path id="edge-/lr3/Gemm_output_0" class="edge-path" d="M1438.8629894256592,34.25L1448.4971561431885,34.25C1458.1313228607178,34.25,1477.3996562957764,34.25,1496.667989730835,34.25C1515.9363231658936,34.25,1535.2046566009521,34.25,1544.8388233184814,34.25L1554.4729900360107,34.25" style="stroke: rgb(0, 0, 0); stroke-width: 1px; fill: none; marker-end: url(&quot;#arrowhead&quot;);"/><path id="edge-/Relu_5_output_0" class="edge-path" d="M1606.7419910430908,34.25L1615.1778240203857,34.25C1623.6136569976807,34.25,1640.4853229522705,34.25,1657.8689782294223,39.931666692097984C1675.2526335065738,45.61333338419596,1693.148278106287,56.97666676839193,1702.096100406144,62.65833346048991L1711.0439227060006,68.34000015258789" style="stroke: rgb(0, 0, 0); stroke-width: 1px; fill: none; marker-end: url(&quot;#arrowhead&quot;);"/><path id="edge-/Add_output_0" class="edge-path" d="M1746.1169872283936,78.5L1753.4828205108643,78.5C1760.848653793335,78.5,1775.5803203582764,78.5,1790.3119869232178,78.5C1805.0436534881592,78.5,1819.7753200531006,78.5,1827.1411533355713,78.5L1834.506986618042,78.5" style="stroke: rgb(0, 0, 0); stroke-width: 1px; fill: none; marker-end: url(&quot;#arrowhead&quot;);"/><path id="edge-29" class="edge-path" d="M1909.506986618042,78.5L1912.1136533419292,78.5C1914.7203200658162,78.5,1919.9336535135906,78.5,1925.1469869613647,78.5C1930.360320409139,78.5,1935.5736538569133,78.5,1938.1803205808003,78.5L1940.7869873046875,78.5" style="stroke: rgb(0, 0, 0); stroke-width: 1px; fill: none; marker-end: url(&quot;#arrowhead&quot;);"/></g><g id="edge-labels" class="edge-labels"><text style="opacity: 1; font-family: -apple-system, BlinkMacSystemFont, &quot;Segoe WPC&quot;, &quot;Segoe UI&quot;, &quot;Ubuntu&quot;, &quot;Droid Sans&quot;, sans-serif, &quot;PingFang SC&quot;; font-size: 10px;" class="edge-label" id="edge-label-edge-onnx::Flatten_0" transform="translate(110.91200256347656,88.5)"><tspan xml:space="preserve" dy="1em" x="1">onnx::Flatten_0</tspan></text><text style="opacity: 1; font-family: -apple-system, BlinkMacSystemFont, &quot;Segoe WPC&quot;, &quot;Segoe UI&quot;, &quot;Ubuntu&quot;, &quot;Droid Sans&quot;, sans-serif, &quot;PingFang SC&quot;; font-size: 10px;" class="edge-label" id="edge-label-edge-/Flatten_output_0" transform="translate(264.7509994506836,88.5)"><tspan xml:space="preserve" dy="1em" x="1">/Flatten_output_0</tspan></text><text style="opacity: 1; font-family: -apple-system, BlinkMacSystemFont, &quot;Segoe WPC&quot;, &quot;Segoe UI&quot;, &quot;Ubuntu&quot;, &quot;Droid Sans&quot;, sans-serif, &quot;PingFang SC&quot;; font-size: 10px;" class="edge-label" id="edge-label-edge-/l1/Gemm_output_0" transform="translate(442.48099517822266,88.5)"><tspan xml:space="preserve" dy="1em" x="1">/l1/Gemm_output_0</tspan></text><text style="opacity: 1; font-family: -apple-system, BlinkMacSystemFont, &quot;Segoe WPC&quot;, &quot;Segoe UI&quot;, &quot;Ubuntu&quot;, &quot;Droid Sans&quot;, sans-serif, &quot;PingFang SC&quot;; font-size: 10px;" class="edge-label" id="edge-label-edge-/Relu_output_0" transform="translate(773.1099948883057,132.75)"><tspan xml:space="preserve" dy="1em" x="1">/Relu_output_0</tspan></text><text style="opacity: 1; font-family: -apple-system, BlinkMacSystemFont, &quot;Segoe WPC&quot;, &quot;Segoe UI&quot;, &quot;Ubuntu&quot;, &quot;Droid Sans&quot;, sans-serif, &quot;PingFang SC&quot;; font-size: 10px;" class="edge-label" id="edge-label-edge-/Relu_output_0" transform="translate(594.964994430542,44.25)"><tspan xml:space="preserve" dy="1em" x="1">/Relu_output_0</tspan></text><text style="opacity: 1; font-family: -apple-system, BlinkMacSystemFont, &quot;Segoe WPC&quot;, &quot;Segoe UI&quot;, &quot;Ubuntu&quot;, &quot;Droid Sans&quot;, sans-serif, &quot;PingFang SC&quot;; font-size: 10px;" class="edge-label" id="edge-label-edge-/ll1/Gemm_output_0" transform="translate(1105.3389911651611,132.75)"><tspan xml:space="preserve" dy="1em" x="1">/ll1/Gemm_output_0</tspan></text><text style="opacity: 1; font-family: -apple-system, BlinkMacSystemFont, &quot;Segoe WPC&quot;, &quot;Segoe UI&quot;, &quot;Ubuntu&quot;, &quot;Droid Sans&quot;, sans-serif, &quot;PingFang SC&quot;; font-size: 10px;" class="edge-label" id="edge-label-edge-/Relu_1_output_0" transform="translate(1272.6329936981201,132.75)"><tspan xml:space="preserve" dy="1em" x="1">/Relu_1_output_0</tspan></text><text style="opacity: 1; font-family: -apple-system, BlinkMacSystemFont, &quot;Segoe WPC&quot;, &quot;Segoe UI&quot;, &quot;Ubuntu&quot;, &quot;Droid Sans&quot;, sans-serif, &quot;PingFang SC&quot;; font-size: 10px;" class="edge-label" id="edge-label-edge-/ll2/Gemm_output_0" transform="translate(1449.4479885101318,132.75)"><tspan xml:space="preserve" dy="1em" x="1">/ll2/Gemm_output_0</tspan></text><text style="opacity: 1; font-family: -apple-system, BlinkMacSystemFont, &quot;Segoe WPC&quot;, &quot;Segoe UI&quot;, &quot;Ubuntu&quot;, &quot;Droid Sans&quot;, sans-serif, &quot;PingFang SC&quot;; font-size: 10px;" class="edge-label" id="edge-label-edge-/Relu_2_output_0" transform="translate(1616.7419910430908,132.75)"><tspan xml:space="preserve" dy="1em" x="1">/Relu_2_output_0</tspan></text><text style="opacity: 1; font-family: -apple-system, BlinkMacSystemFont, &quot;Segoe WPC&quot;, &quot;Segoe UI&quot;, &quot;Ubuntu&quot;, &quot;Droid Sans&quot;, sans-serif, &quot;PingFang SC&quot;; font-size: 10px;" class="edge-label" id="edge-label-edge-/lr1/Gemm_output_0" transform="translate(760.6449947357178,44.25)"><tspan xml:space="preserve" dy="1em" x="1">/lr1/Gemm_output_0</tspan></text><text style="opacity: 1; font-family: -apple-system, BlinkMacSystemFont, &quot;Segoe WPC&quot;, &quot;Segoe UI&quot;, &quot;Ubuntu&quot;, &quot;Droid Sans&quot;, sans-serif, &quot;PingFang SC&quot;; font-size: 10px;" class="edge-label" id="edge-label-edge-/Relu_3_output_0" transform="translate(928.5239963531494,44.25)"><tspan xml:space="preserve" dy="1em" x="1">/Relu_3_output_0</tspan></text><text style="opacity: 1; font-family: -apple-system, BlinkMacSystemFont, &quot;Segoe WPC&quot;, &quot;Segoe UI&quot;, &quot;Ubuntu&quot;, &quot;Droid Sans&quot;, sans-serif, &quot;PingFang SC&quot;; font-size: 10px;" class="edge-label" id="edge-label-edge-/lr2/Gemm_output_0" transform="translate(1104.7539920806885,44.25)"><tspan xml:space="preserve" dy="1em" x="1">/lr2/Gemm_output_0</tspan></text><text style="opacity: 1; font-family: -apple-system, BlinkMacSystemFont, &quot;Segoe WPC&quot;, &quot;Segoe UI&quot;, &quot;Ubuntu&quot;, &quot;Droid Sans&quot;, sans-serif, &quot;PingFang SC&quot;; font-size: 10px;" class="edge-label" id="edge-label-edge-/Relu_4_output_0" transform="translate(1272.6329936981201,44.25)"><tspan xml:space="preserve" dy="1em" x="1">/Relu_4_output_0</tspan></text><text style="opacity: 1; font-family: -apple-system, BlinkMacSystemFont, &quot;Segoe WPC&quot;, &quot;Segoe UI&quot;, &quot;Ubuntu&quot;, &quot;Droid Sans&quot;, sans-serif, &quot;PingFang SC&quot;; font-size: 10px;" class="edge-label" id="edge-label-edge-/lr3/Gemm_output_0" transform="translate(1448.8629894256592,44.25)"><tspan xml:space="preserve" dy="1em" x="1">/lr3/Gemm_output_0</tspan></text><text style="opacity: 1; font-family: -apple-system, BlinkMacSystemFont, &quot;Segoe WPC&quot;, &quot;Segoe UI&quot;, &quot;Ubuntu&quot;, &quot;Droid Sans&quot;, sans-serif, &quot;PingFang SC&quot;; font-size: 10px;" class="edge-label" id="edge-label-edge-/Relu_5_output_0" transform="translate(1616.7419910430908,44.25)"><tspan xml:space="preserve" dy="1em" x="1">/Relu_5_output_0</tspan></text><text style="opacity: 1; font-family: -apple-system, BlinkMacSystemFont, &quot;Segoe WPC&quot;, &quot;Segoe UI&quot;, &quot;Ubuntu&quot;, &quot;Droid Sans&quot;, sans-serif, &quot;PingFang SC&quot;; font-size: 10px;" class="edge-label" id="edge-label-edge-/Add_output_0" transform="translate(1756.1169872283936,88.5)"><tspan xml:space="preserve" dy="1em" x="1">/Add_output_0</tspan></text><text style="opacity: 1; font-family: -apple-system, BlinkMacSystemFont, &quot;Segoe WPC&quot;, &quot;Segoe UI&quot;, &quot;Ubuntu&quot;, &quot;Droid Sans&quot;, sans-serif, &quot;PingFang SC&quot;; font-size: 10px;" class="edge-label" id="edge-label-edge-29" transform="translate(1919.506986618042,88.5)"><tspan xml:space="preserve" dy="1em" x="1">29</tspan></text></g><g id="nodes" class="nodes"><g id="input-name-onnx::Flatten_0" class="node graph-input" style="" transform="translate(0,68.34000015258789)"><g class="node-item graph-item-input" transform="translate(0,0)"><path d="M5,0h80.91200256347656a5,5 0 0 1 5,5v10.319999694824219a5,5 0 0 1 -5,5h-80.91200256347656a5,5 0 0 1 -5,-5v-10.319999694824219a5,5 0 0 1 5,-5z" style="stroke: rgb(0, 0, 0); fill: rgb(238, 238, 238); stroke-width: 0px;"/><text x="6" y="14.230000495910645" style="font-family: -apple-system, BlinkMacSystemFont, &quot;Segoe WPC&quot;, &quot;Segoe UI&quot;, &quot;Ubuntu&quot;, &quot;Droid Sans&quot;, sans-serif, &quot;PingFang SC&quot;; font-size: 11px; text-rendering: geometricprecision; user-select: none;">onnx::Flatten_0</text><title>float32[1,1,28,28]</title></g><path class="node node-border" d="M5,0h80.91200256347656a5,5 0 0 1 5,5v10.319999694824219a5,5 0 0 1 -5,5h-80.91200256347656a5,5 0 0 1 -5,-5v-10.319999694824219a5,5 0 0 1 5,-5z" style="stroke: rgb(51, 51, 51); fill: none; stroke-width: 1px;"/></g><g id="node-name-/Flatten" class="node graph-node" style="" transform="translate(200.83200073242188,68.34000015258789)"><g class="node-item node-item-type node-item-type-shape" transform="translate(0,0)"><path d="M5,0h43.91899871826172a5,5 0 0 1 5,5v10.319999694824219a5,5 0 0 1 -5,5h-43.91899871826172a5,5 0 0 1 -5,-5v-10.319999694824219a5,5 0 0 1 5,-5z" style="stroke: rgb(0, 0, 0); fill: rgb(108, 79, 71); stroke-width: 0px;"/><text x="6" y="14.230000495910645" style="font-family: -apple-system, BlinkMacSystemFont, &quot;Segoe WPC&quot;, &quot;Segoe UI&quot;, &quot;Ubuntu&quot;, &quot;Droid Sans&quot;, sans-serif, &quot;PingFang SC&quot;; font-size: 11px; text-rendering: geometricprecision; user-select: none; fill: rgb(255, 255, 255);">/Flatten</text><title>[Flatten]</title></g><path class="node node-border" d="M5,0h43.91899871826172a5,5 0 0 1 5,5v10.319999694824219a5,5 0 0 1 -5,5h-43.91899871826172a5,5 0 0 1 -5,-5v-10.319999694824219a5,5 0 0 1 5,-5z" style="stroke: rgb(51, 51, 51); fill: none; stroke-width: 1px;"/></g><g id="node-name-/l1/Gemm" class="node graph-node" style="" transform="translate(357.48099517822266,44.25)"><g class="node-item node-item-type node-item-type-layer" transform="translate(0,0)"><path d="M5,0h65a5,5 0 0 1 5,5v15.319999694824219a0,0 0 0 1 0,0h-75a0,0 0 0 1 0,0v-15.319999694824219a5,5 0 0 1 5,-5z" style="stroke: rgb(0, 0, 0); fill: rgb(51, 85, 136); stroke-width: 0px;"/><text x="6" y="14.230000495910645" style="font-family: -apple-system, BlinkMacSystemFont, &quot;Segoe WPC&quot;, &quot;Segoe UI&quot;, &quot;Ubuntu&quot;, &quot;Droid Sans&quot;, sans-serif, &quot;PingFang SC&quot;; font-size: 11px; text-rendering: geometricprecision; user-select: none; fill: rgb(255, 255, 255);">/l1/Gemm</text><title>[Gemm]</title></g><g class="node-argument-list" transform="translate(0,20.31999969482422)"><path d="M0,0h75a0,0 0 0 1 0,0v43.18000030517578a5,5 0 0 1 -5,5h-65a5,5 0 0 1 -5,-5v-43.18000030517578a0,0 0 0 1 0,0z" style="stroke: rgb(0, 0, 0); fill: rgb(255, 255, 255); stroke-width: 0px;"/><g class="node-argument"><rect rx="3" ry="3" x="3" y="3" width="69" height="15.050000190734863" style="fill: transparent;"/><text xml:space="preserve" x="6" y="14.440000534057617" style="font-family: -apple-system, BlinkMacSystemFont, &quot;Segoe WPC&quot;, &quot;Segoe UI&quot;, &quot;Ubuntu&quot;, &quot;Droid Sans&quot;, sans-serif, &quot;PingFang SC&quot;; font-size: 9px; font-weight: normal; text-rendering: geometricprecision; user-select: none;"><title>float32[512,784]</title><tspan style="font-weight: bold;">B</tspan><tspan>〈512×784〉</tspan></text></g><g class="node-argument"><rect rx="3" ry="3" x="3" y="18.050000190734863" width="69" height="15.050000190734863" style="fill: transparent;"/><text xml:space="preserve" x="6" y="29.49000072479248" style="font-family: -apple-system, BlinkMacSystemFont, &quot;Segoe WPC&quot;, &quot;Segoe UI&quot;, &quot;Ubuntu&quot;, &quot;Droid Sans&quot;, sans-serif, &quot;PingFang SC&quot;; font-size: 9px; font-weight: normal; text-rendering: geometricprecision; user-select: none;"><title>float32[512]</title><tspan style="font-weight: bold;">C</tspan><tspan>〈512〉</tspan></text></g><g class="node-argument"><rect rx="3" ry="3" x="3" y="33.10000038146973" width="69" height="12.079999923706055" style="fill: transparent;"/><text xml:space="preserve" x="6" y="42.47000026702881" style="font-family: -apple-system, BlinkMacSystemFont, &quot;Segoe WPC&quot;, &quot;Segoe UI&quot;, &quot;Ubuntu&quot;, &quot;Droid Sans&quot;, sans-serif, &quot;PingFang SC&quot;; font-size: 9px; font-weight: normal; text-rendering: geometricprecision; user-select: none;"><title>int64</title><tspan>transB</tspan><tspan> = 1</tspan></text></g><line class="node" x1="0" x2="75" y1="0" y2="0" style="stroke: rgb(51, 51, 51); fill: none; stroke-width: 1px;"/></g><path class="node node-border" d="M5,0h65a5,5 0 0 1 5,5v58.5a5,5 0 0 1 -5,5h-65a5,5 0 0 1 -5,-5v-58.5a5,5 0 0 1 5,-5z" style="stroke: rgb(51, 51, 51); fill: none; stroke-width: 1px;"/></g><g id="node-name-/Relu" class="node graph-node" style="" transform="translate(544.3009948730469,68.34000015258789)"><g class="node-item node-item-type node-item-type-activation" transform="translate(0,0)"><path d="M5,0h30.663999557495117a5,5 0 0 1 5,5v10.319999694824219a5,5 0 0 1 -5,5h-30.663999557495117a5,5 0 0 1 -5,-5v-10.319999694824219a5,5 0 0 1 5,-5z" style="stroke: rgb(0, 0, 0); fill: rgb(112, 41, 33); stroke-width: 0px;"/><text x="6" y="14.230000495910645" style="font-family: -apple-system, BlinkMacSystemFont, &quot;Segoe WPC&quot;, &quot;Segoe UI&quot;, &quot;Ubuntu&quot;, &quot;Droid Sans&quot;, sans-serif, &quot;PingFang SC&quot;; font-size: 11px; text-rendering: geometricprecision; user-select: none; fill: rgb(255, 255, 255);">/Relu</text><title>[Relu]</title></g><path class="node node-border" d="M5,0h30.663999557495117a5,5 0 0 1 5,5v10.319999694824219a5,5 0 0 1 -5,5h-30.663999557495117a5,5 0 0 1 -5,-5v-10.319999694824219a5,5 0 0 1 5,-5z" style="stroke: rgb(51, 51, 51); fill: none; stroke-width: 1px;"/></g><g id="node-name-/ll1/Gemm" class="node graph-node" style="" transform="translate(1019.7539920806885,88.5)"><g class="node-item node-item-type node-item-type-layer" transform="translate(0,0)"><path d="M5,0h65a5,5 0 0 1 5,5v15.319999694824219a0,0 0 0 1 0,0h-75a0,0 0 0 1 0,0v-15.319999694824219a5,5 0 0 1 5,-5z" style="stroke: rgb(0, 0, 0); fill: rgb(51, 85, 136); stroke-width: 0px;"/><text x="6" y="14.230000495910645" style="font-family: -apple-system, BlinkMacSystemFont, &quot;Segoe WPC&quot;, &quot;Segoe UI&quot;, &quot;Ubuntu&quot;, &quot;Droid Sans&quot;, sans-serif, &quot;PingFang SC&quot;; font-size: 11px; text-rendering: geometricprecision; user-select: none; fill: rgb(255, 255, 255);">/ll1/Gemm</text><title>[Gemm]</title></g><g class="node-argument-list" transform="translate(0,20.31999969482422)"><path d="M0,0h75a0,0 0 0 1 0,0v43.18000030517578a5,5 0 0 1 -5,5h-65a5,5 0 0 1 -5,-5v-43.18000030517578a0,0 0 0 1 0,0z" style="stroke: rgb(0, 0, 0); fill: rgb(255, 255, 255); stroke-width: 0px;"/><g class="node-argument"><rect rx="3" ry="3" x="3" y="3" width="69" height="15.050000190734863" style="fill: transparent;"/><text xml:space="preserve" x="6" y="14.440000534057617" style="font-family: -apple-system, BlinkMacSystemFont, &quot;Segoe WPC&quot;, &quot;Segoe UI&quot;, &quot;Ubuntu&quot;, &quot;Droid Sans&quot;, sans-serif, &quot;PingFang SC&quot;; font-size: 9px; font-weight: normal; text-rendering: geometricprecision; user-select: none;"><title>float32[200,512]</title><tspan style="font-weight: bold;">B</tspan><tspan>〈200×512〉</tspan></text></g><g class="node-argument"><rect rx="3" ry="3" x="3" y="18.050000190734863" width="69" height="15.050000190734863" style="fill: transparent;"/><text xml:space="preserve" x="6" y="29.49000072479248" style="font-family: -apple-system, BlinkMacSystemFont, &quot;Segoe WPC&quot;, &quot;Segoe UI&quot;, &quot;Ubuntu&quot;, &quot;Droid Sans&quot;, sans-serif, &quot;PingFang SC&quot;; font-size: 9px; font-weight: normal; text-rendering: geometricprecision; user-select: none;"><title>float32[200]</title><tspan style="font-weight: bold;">C</tspan><tspan>〈200〉</tspan></text></g><g class="node-argument"><rect rx="3" ry="3" x="3" y="33.10000038146973" width="69" height="12.079999923706055" style="fill: transparent;"/><text xml:space="preserve" x="6" y="42.47000026702881" style="font-family: -apple-system, BlinkMacSystemFont, &quot;Segoe WPC&quot;, &quot;Segoe UI&quot;, &quot;Ubuntu&quot;, &quot;Droid Sans&quot;, sans-serif, &quot;PingFang SC&quot;; font-size: 9px; font-weight: normal; text-rendering: geometricprecision; user-select: none;"><title>int64</title><tspan>transB</tspan><tspan> = 1</tspan></text></g><line class="node" x1="0" x2="75" y1="0" y2="0" style="stroke: rgb(51, 51, 51); fill: none; stroke-width: 1px;"/></g><path class="node node-border" d="M5,0h65a5,5 0 0 1 5,5v58.5a5,5 0 0 1 -5,5h-65a5,5 0 0 1 -5,-5v-58.5a5,5 0 0 1 5,-5z" style="stroke: rgb(51, 51, 51); fill: none; stroke-width: 1px;"/></g><g id="node-name-/Relu_1" class="node graph-node" style="" transform="translate(1210.36399269104,112.59000015258789)"><g class="node-item node-item-type node-item-type-activation" transform="translate(0,0)"><path d="M5,0h42.26900100708008a5,5 0 0 1 5,5v10.319999694824219a5,5 0 0 1 -5,5h-42.26900100708008a5,5 0 0 1 -5,-5v-10.319999694824219a5,5 0 0 1 5,-5z" style="stroke: rgb(0, 0, 0); fill: rgb(112, 41, 33); stroke-width: 0px;"/><text x="6" y="14.230000495910645" style="font-family: -apple-system, BlinkMacSystemFont, &quot;Segoe WPC&quot;, &quot;Segoe UI&quot;, &quot;Ubuntu&quot;, &quot;Droid Sans&quot;, sans-serif, &quot;PingFang SC&quot;; font-size: 11px; text-rendering: geometricprecision; user-select: none; fill: rgb(255, 255, 255);">/Relu_1</text><title>[Relu]</title></g><path class="node node-border" d="M5,0h42.26900100708008a5,5 0 0 1 5,5v10.319999694824219a5,5 0 0 1 -5,5h-42.26900100708008a5,5 0 0 1 -5,-5v-10.319999694824219a5,5 0 0 1 5,-5z" style="stroke: rgb(51, 51, 51); fill: none; stroke-width: 1px;"/></g><g id="node-name-/ll2/Gemm" class="node graph-node" style="" transform="translate(1363.8629894256592,88.5)"><g class="node-item node-item-type node-item-type-layer" transform="translate(0,0)"><path d="M5,0h65a5,5 0 0 1 5,5v15.319999694824219a0,0 0 0 1 0,0h-75a0,0 0 0 1 0,0v-15.319999694824219a5,5 0 0 1 5,-5z" style="stroke: rgb(0, 0, 0); fill: rgb(51, 85, 136); stroke-width: 0px;"/><text x="6" y="14.230000495910645" style="font-family: -apple-system, BlinkMacSystemFont, &quot;Segoe WPC&quot;, &quot;Segoe UI&quot;, &quot;Ubuntu&quot;, &quot;Droid Sans&quot;, sans-serif, &quot;PingFang SC&quot;; font-size: 11px; text-rendering: geometricprecision; user-select: none; fill: rgb(255, 255, 255);">/ll2/Gemm</text><title>[Gemm]</title></g><g class="node-argument-list" transform="translate(0,20.31999969482422)"><path d="M0,0h75a0,0 0 0 1 0,0v43.18000030517578a5,5 0 0 1 -5,5h-65a5,5 0 0 1 -5,-5v-43.18000030517578a0,0 0 0 1 0,0z" style="stroke: rgb(0, 0, 0); fill: rgb(255, 255, 255); stroke-width: 0px;"/><g class="node-argument"><rect rx="3" ry="3" x="3" y="3" width="69" height="15.050000190734863" style="fill: transparent;"/><text xml:space="preserve" x="6" y="14.440000534057617" style="font-family: -apple-system, BlinkMacSystemFont, &quot;Segoe WPC&quot;, &quot;Segoe UI&quot;, &quot;Ubuntu&quot;, &quot;Droid Sans&quot;, sans-serif, &quot;PingFang SC&quot;; font-size: 9px; font-weight: normal; text-rendering: geometricprecision; user-select: none;"><title>float32[100,200]</title><tspan style="font-weight: bold;">B</tspan><tspan>〈100×200〉</tspan></text></g><g class="node-argument"><rect rx="3" ry="3" x="3" y="18.050000190734863" width="69" height="15.050000190734863" style="fill: transparent;"/><text xml:space="preserve" x="6" y="29.49000072479248" style="font-family: -apple-system, BlinkMacSystemFont, &quot;Segoe WPC&quot;, &quot;Segoe UI&quot;, &quot;Ubuntu&quot;, &quot;Droid Sans&quot;, sans-serif, &quot;PingFang SC&quot;; font-size: 9px; font-weight: normal; text-rendering: geometricprecision; user-select: none;"><title>float32[100]</title><tspan style="font-weight: bold;">C</tspan><tspan>〈100〉</tspan></text></g><g class="node-argument"><rect rx="3" ry="3" x="3" y="33.10000038146973" width="69" height="12.079999923706055" style="fill: transparent;"/><text xml:space="preserve" x="6" y="42.47000026702881" style="font-family: -apple-system, BlinkMacSystemFont, &quot;Segoe WPC&quot;, &quot;Segoe UI&quot;, &quot;Ubuntu&quot;, &quot;Droid Sans&quot;, sans-serif, &quot;PingFang SC&quot;; font-size: 9px; font-weight: normal; text-rendering: geometricprecision; user-select: none;"><title>int64</title><tspan>transB</tspan><tspan> = 1</tspan></text></g><line class="node" x1="0" x2="75" y1="0" y2="0" style="stroke: rgb(51, 51, 51); fill: none; stroke-width: 1px;"/></g><path class="node node-border" d="M5,0h65a5,5 0 0 1 5,5v58.5a5,5 0 0 1 -5,5h-65a5,5 0 0 1 -5,-5v-58.5a5,5 0 0 1 5,-5z" style="stroke: rgb(51, 51, 51); fill: none; stroke-width: 1px;"/></g><g id="node-name-/Relu_2" class="node graph-node" style="" transform="translate(1554.4729900360107,112.59000015258789)"><g class="node-item node-item-type node-item-type-activation" transform="translate(0,0)"><path d="M5,0h42.26900100708008a5,5 0 0 1 5,5v10.319999694824219a5,5 0 0 1 -5,5h-42.26900100708008a5,5 0 0 1 -5,-5v-10.319999694824219a5,5 0 0 1 5,-5z" style="stroke: rgb(0, 0, 0); fill: rgb(112, 41, 33); stroke-width: 0px;"/><text x="6" y="14.230000495910645" style="font-family: -apple-system, BlinkMacSystemFont, &quot;Segoe WPC&quot;, &quot;Segoe UI&quot;, &quot;Ubuntu&quot;, &quot;Droid Sans&quot;, sans-serif, &quot;PingFang SC&quot;; font-size: 11px; text-rendering: geometricprecision; user-select: none; fill: rgb(255, 255, 255);">/Relu_2</text><title>[Relu]</title></g><path class="node node-border" d="M5,0h42.26900100708008a5,5 0 0 1 5,5v10.319999694824219a5,5 0 0 1 -5,5h-42.26900100708008a5,5 0 0 1 -5,-5v-10.319999694824219a5,5 0 0 1 5,-5z" style="stroke: rgb(51, 51, 51); fill: none; stroke-width: 1px;"/></g><g id="node-name-/lr1/Gemm" class="node graph-node" style="" transform="translate(675.6449947357178,0)"><g class="node-item node-item-type node-item-type-layer" transform="translate(0,0)"><path d="M5,0h65a5,5 0 0 1 5,5v15.319999694824219a0,0 0 0 1 0,0h-75a0,0 0 0 1 0,0v-15.319999694824219a5,5 0 0 1 5,-5z" style="stroke: rgb(0, 0, 0); fill: rgb(51, 85, 136); stroke-width: 0px;"/><text x="6" y="14.230000495910645" style="font-family: -apple-system, BlinkMacSystemFont, &quot;Segoe WPC&quot;, &quot;Segoe UI&quot;, &quot;Ubuntu&quot;, &quot;Droid Sans&quot;, sans-serif, &quot;PingFang SC&quot;; font-size: 11px; text-rendering: geometricprecision; user-select: none; fill: rgb(255, 255, 255);">/lr1/Gemm</text><title>[Gemm]</title></g><g class="node-argument-list" transform="translate(0,20.31999969482422)"><path d="M0,0h75a0,0 0 0 1 0,0v43.18000030517578a5,5 0 0 1 -5,5h-65a5,5 0 0 1 -5,-5v-43.18000030517578a0,0 0 0 1 0,0z" style="stroke: rgb(0, 0, 0); fill: rgb(255, 255, 255); stroke-width: 0px;"/><g class="node-argument"><rect rx="3" ry="3" x="3" y="3" width="69" height="15.050000190734863" style="fill: transparent;"/><text xml:space="preserve" x="6" y="14.440000534057617" style="font-family: -apple-system, BlinkMacSystemFont, &quot;Segoe WPC&quot;, &quot;Segoe UI&quot;, &quot;Ubuntu&quot;, &quot;Droid Sans&quot;, sans-serif, &quot;PingFang SC&quot;; font-size: 9px; font-weight: normal; text-rendering: geometricprecision; user-select: none;"><title>float32[300,512]</title><tspan style="font-weight: bold;">B</tspan><tspan>〈300×512〉</tspan></text></g><g class="node-argument"><rect rx="3" ry="3" x="3" y="18.050000190734863" width="69" height="15.050000190734863" style="fill: transparent;"/><text xml:space="preserve" x="6" y="29.49000072479248" style="font-family: -apple-system, BlinkMacSystemFont, &quot;Segoe WPC&quot;, &quot;Segoe UI&quot;, &quot;Ubuntu&quot;, &quot;Droid Sans&quot;, sans-serif, &quot;PingFang SC&quot;; font-size: 9px; font-weight: normal; text-rendering: geometricprecision; user-select: none;"><title>float32[300]</title><tspan style="font-weight: bold;">C</tspan><tspan>〈300〉</tspan></text></g><g class="node-argument"><rect rx="3" ry="3" x="3" y="33.10000038146973" width="69" height="12.079999923706055" style="fill: transparent;"/><text xml:space="preserve" x="6" y="42.47000026702881" style="font-family: -apple-system, BlinkMacSystemFont, &quot;Segoe WPC&quot;, &quot;Segoe UI&quot;, &quot;Ubuntu&quot;, &quot;Droid Sans&quot;, sans-serif, &quot;PingFang SC&quot;; font-size: 9px; font-weight: normal; text-rendering: geometricprecision; user-select: none;"><title>int64</title><tspan>transB</tspan><tspan> = 1</tspan></text></g><line class="node" x1="0" x2="75" y1="0" y2="0" style="stroke: rgb(51, 51, 51); fill: none; stroke-width: 1px;"/></g><path class="node node-border" d="M5,0h65a5,5 0 0 1 5,5v58.5a5,5 0 0 1 -5,5h-65a5,5 0 0 1 -5,-5v-58.5a5,5 0 0 1 5,-5z" style="stroke: rgb(51, 51, 51); fill: none; stroke-width: 1px;"/></g><g id="node-name-/Relu_3" class="node graph-node" style="" transform="translate(866.2549953460693,24.09000015258789)"><g class="node-item node-item-type node-item-type-activation" transform="translate(0,0)"><path d="M5,0h42.26900100708008a5,5 0 0 1 5,5v10.319999694824219a5,5 0 0 1 -5,5h-42.26900100708008a5,5 0 0 1 -5,-5v-10.319999694824219a5,5 0 0 1 5,-5z" style="stroke: rgb(0, 0, 0); fill: rgb(112, 41, 33); stroke-width: 0px;"/><text x="6" y="14.230000495910645" style="font-family: -apple-system, BlinkMacSystemFont, &quot;Segoe WPC&quot;, &quot;Segoe UI&quot;, &quot;Ubuntu&quot;, &quot;Droid Sans&quot;, sans-serif, &quot;PingFang SC&quot;; font-size: 11px; text-rendering: geometricprecision; user-select: none; fill: rgb(255, 255, 255);">/Relu_3</text><title>[Relu]</title></g><path class="node node-border" d="M5,0h42.26900100708008a5,5 0 0 1 5,5v10.319999694824219a5,5 0 0 1 -5,5h-42.26900100708008a5,5 0 0 1 -5,-5v-10.319999694824219a5,5 0 0 1 5,-5z" style="stroke: rgb(51, 51, 51); fill: none; stroke-width: 1px;"/></g><g id="node-name-/lr2/Gemm" class="node graph-node" style="" transform="translate(1019.7539920806885,0)"><g class="node-item node-item-type node-item-type-layer" transform="translate(0,0)"><path d="M5,0h65a5,5 0 0 1 5,5v15.319999694824219a0,0 0 0 1 0,0h-75a0,0 0 0 1 0,0v-15.319999694824219a5,5 0 0 1 5,-5z" style="stroke: rgb(0, 0, 0); fill: rgb(51, 85, 136); stroke-width: 0px;"/><text x="6" y="14.230000495910645" style="font-family: -apple-system, BlinkMacSystemFont, &quot;Segoe WPC&quot;, &quot;Segoe UI&quot;, &quot;Ubuntu&quot;, &quot;Droid Sans&quot;, sans-serif, &quot;PingFang SC&quot;; font-size: 11px; text-rendering: geometricprecision; user-select: none; fill: rgb(255, 255, 255);">/lr2/Gemm</text><title>[Gemm]</title></g><g class="node-argument-list" transform="translate(0,20.31999969482422)"><path d="M0,0h75a0,0 0 0 1 0,0v43.18000030517578a5,5 0 0 1 -5,5h-65a5,5 0 0 1 -5,-5v-43.18000030517578a0,0 0 0 1 0,0z" style="stroke: rgb(0, 0, 0); fill: rgb(255, 255, 255); stroke-width: 0px;"/><g class="node-argument"><rect rx="3" ry="3" x="3" y="3" width="69" height="15.050000190734863" style="fill: transparent;"/><text xml:space="preserve" x="6" y="14.440000534057617" style="font-family: -apple-system, BlinkMacSystemFont, &quot;Segoe WPC&quot;, &quot;Segoe UI&quot;, &quot;Ubuntu&quot;, &quot;Droid Sans&quot;, sans-serif, &quot;PingFang SC&quot;; font-size: 9px; font-weight: normal; text-rendering: geometricprecision; user-select: none;"><title>float32[200,300]</title><tspan style="font-weight: bold;">B</tspan><tspan>〈200×300〉</tspan></text></g><g class="node-argument"><rect rx="3" ry="3" x="3" y="18.050000190734863" width="69" height="15.050000190734863" style="fill: transparent;"/><text xml:space="preserve" x="6" y="29.49000072479248" style="font-family: -apple-system, BlinkMacSystemFont, &quot;Segoe WPC&quot;, &quot;Segoe UI&quot;, &quot;Ubuntu&quot;, &quot;Droid Sans&quot;, sans-serif, &quot;PingFang SC&quot;; font-size: 9px; font-weight: normal; text-rendering: geometricprecision; user-select: none;"><title>float32[200]</title><tspan style="font-weight: bold;">C</tspan><tspan>〈200〉</tspan></text></g><g class="node-argument"><rect rx="3" ry="3" x="3" y="33.10000038146973" width="69" height="12.079999923706055" style="fill: transparent;"/><text xml:space="preserve" x="6" y="42.47000026702881" style="font-family: -apple-system, BlinkMacSystemFont, &quot;Segoe WPC&quot;, &quot;Segoe UI&quot;, &quot;Ubuntu&quot;, &quot;Droid Sans&quot;, sans-serif, &quot;PingFang SC&quot;; font-size: 9px; font-weight: normal; text-rendering: geometricprecision; user-select: none;"><title>int64</title><tspan>transB</tspan><tspan> = 1</tspan></text></g><line class="node" x1="0" x2="75" y1="0" y2="0" style="stroke: rgb(51, 51, 51); fill: none; stroke-width: 1px;"/></g><path class="node node-border" d="M5,0h65a5,5 0 0 1 5,5v58.5a5,5 0 0 1 -5,5h-65a5,5 0 0 1 -5,-5v-58.5a5,5 0 0 1 5,-5z" style="stroke: rgb(51, 51, 51); fill: none; stroke-width: 1px;"/></g><g id="node-name-/Relu_4" class="node graph-node" style="" transform="translate(1210.36399269104,24.09000015258789)"><g class="node-item node-item-type node-item-type-activation" transform="translate(0,0)"><path d="M5,0h42.26900100708008a5,5 0 0 1 5,5v10.319999694824219a5,5 0 0 1 -5,5h-42.26900100708008a5,5 0 0 1 -5,-5v-10.319999694824219a5,5 0 0 1 5,-5z" style="stroke: rgb(0, 0, 0); fill: rgb(112, 41, 33); stroke-width: 0px;"/><text x="6" y="14.230000495910645" style="font-family: -apple-system, BlinkMacSystemFont, &quot;Segoe WPC&quot;, &quot;Segoe UI&quot;, &quot;Ubuntu&quot;, &quot;Droid Sans&quot;, sans-serif, &quot;PingFang SC&quot;; font-size: 11px; text-rendering: geometricprecision; user-select: none; fill: rgb(255, 255, 255);">/Relu_4</text><title>[Relu]</title></g><path class="node node-border" d="M5,0h42.26900100708008a5,5 0 0 1 5,5v10.319999694824219a5,5 0 0 1 -5,5h-42.26900100708008a5,5 0 0 1 -5,-5v-10.319999694824219a5,5 0 0 1 5,-5z" style="stroke: rgb(51, 51, 51); fill: none; stroke-width: 1px;"/></g><g id="node-name-/lr3/Gemm" class="node graph-node" style="" transform="translate(1363.8629894256592,0)"><g class="node-item node-item-type node-item-type-layer" transform="translate(0,0)"><path d="M5,0h65a5,5 0 0 1 5,5v15.319999694824219a0,0 0 0 1 0,0h-75a0,0 0 0 1 0,0v-15.319999694824219a5,5 0 0 1 5,-5z" style="stroke: rgb(0, 0, 0); fill: rgb(51, 85, 136); stroke-width: 0px;"/><text x="6" y="14.230000495910645" style="font-family: -apple-system, BlinkMacSystemFont, &quot;Segoe WPC&quot;, &quot;Segoe UI&quot;, &quot;Ubuntu&quot;, &quot;Droid Sans&quot;, sans-serif, &quot;PingFang SC&quot;; font-size: 11px; text-rendering: geometricprecision; user-select: none; fill: rgb(255, 255, 255);">/lr3/Gemm</text><title>[Gemm]</title></g><g class="node-argument-list" transform="translate(0,20.31999969482422)"><path d="M0,0h75a0,0 0 0 1 0,0v43.18000030517578a5,5 0 0 1 -5,5h-65a5,5 0 0 1 -5,-5v-43.18000030517578a0,0 0 0 1 0,0z" style="stroke: rgb(0, 0, 0); fill: rgb(255, 255, 255); stroke-width: 0px;"/><g class="node-argument"><rect rx="3" ry="3" x="3" y="3" width="69" height="15.050000190734863" style="fill: transparent;"/><text xml:space="preserve" x="6" y="14.440000534057617" style="font-family: -apple-system, BlinkMacSystemFont, &quot;Segoe WPC&quot;, &quot;Segoe UI&quot;, &quot;Ubuntu&quot;, &quot;Droid Sans&quot;, sans-serif, &quot;PingFang SC&quot;; font-size: 9px; font-weight: normal; text-rendering: geometricprecision; user-select: none;"><title>float32[100,200]</title><tspan style="font-weight: bold;">B</tspan><tspan>〈100×200〉</tspan></text></g><g class="node-argument"><rect rx="3" ry="3" x="3" y="18.050000190734863" width="69" height="15.050000190734863" style="fill: transparent;"/><text xml:space="preserve" x="6" y="29.49000072479248" style="font-family: -apple-system, BlinkMacSystemFont, &quot;Segoe WPC&quot;, &quot;Segoe UI&quot;, &quot;Ubuntu&quot;, &quot;Droid Sans&quot;, sans-serif, &quot;PingFang SC&quot;; font-size: 9px; font-weight: normal; text-rendering: geometricprecision; user-select: none;"><title>float32[100]</title><tspan style="font-weight: bold;">C</tspan><tspan>〈100〉</tspan></text></g><g class="node-argument"><rect rx="3" ry="3" x="3" y="33.10000038146973" width="69" height="12.079999923706055" style="fill: transparent;"/><text xml:space="preserve" x="6" y="42.47000026702881" style="font-family: -apple-system, BlinkMacSystemFont, &quot;Segoe WPC&quot;, &quot;Segoe UI&quot;, &quot;Ubuntu&quot;, &quot;Droid Sans&quot;, sans-serif, &quot;PingFang SC&quot;; font-size: 9px; font-weight: normal; text-rendering: geometricprecision; user-select: none;"><title>int64</title><tspan>transB</tspan><tspan> = 1</tspan></text></g><line class="node" x1="0" x2="75" y1="0" y2="0" style="stroke: rgb(51, 51, 51); fill: none; stroke-width: 1px;"/></g><path class="node node-border" d="M5,0h65a5,5 0 0 1 5,5v58.5a5,5 0 0 1 -5,5h-65a5,5 0 0 1 -5,-5v-58.5a5,5 0 0 1 5,-5z" style="stroke: rgb(51, 51, 51); fill: none; stroke-width: 1px;"/></g><g id="node-name-/Relu_5" class="node graph-node" style="" transform="translate(1554.4729900360107,24.09000015258789)"><g class="node-item node-item-type node-item-type-activation" transform="translate(0,0)"><path d="M5,0h42.26900100708008a5,5 0 0 1 5,5v10.319999694824219a5,5 0 0 1 -5,5h-42.26900100708008a5,5 0 0 1 -5,-5v-10.319999694824219a5,5 0 0 1 5,-5z" style="stroke: rgb(0, 0, 0); fill: rgb(112, 41, 33); stroke-width: 0px;"/><text x="6" y="14.230000495910645" style="font-family: -apple-system, BlinkMacSystemFont, &quot;Segoe WPC&quot;, &quot;Segoe UI&quot;, &quot;Ubuntu&quot;, &quot;Droid Sans&quot;, sans-serif, &quot;PingFang SC&quot;; font-size: 11px; text-rendering: geometricprecision; user-select: none; fill: rgb(255, 255, 255);">/Relu_5</text><title>[Relu]</title></g><path class="node node-border" d="M5,0h42.26900100708008a5,5 0 0 1 5,5v10.319999694824219a5,5 0 0 1 -5,5h-42.26900100708008a5,5 0 0 1 -5,-5v-10.319999694824219a5,5 0 0 1 5,-5z" style="stroke: rgb(51, 51, 51); fill: none; stroke-width: 1px;"/></g><g id="node-name-/Add" class="node graph-node" style="" transform="translate(1707.9719867706299,68.34000015258789)"><g class="node-item node-item-type" transform="translate(0,0)"><path d="M5,0h28.145000457763672a5,5 0 0 1 5,5v10.319999694824219a5,5 0 0 1 -5,5h-28.145000457763672a5,5 0 0 1 -5,-5v-10.319999694824219a5,5 0 0 1 5,-5z" style="stroke: rgb(0, 0, 0); fill: rgb(0, 0, 0); stroke-width: 0px;"/><text x="6" y="14.230000495910645" style="font-family: -apple-system, BlinkMacSystemFont, &quot;Segoe WPC&quot;, &quot;Segoe UI&quot;, &quot;Ubuntu&quot;, &quot;Droid Sans&quot;, sans-serif, &quot;PingFang SC&quot;; font-size: 11px; text-rendering: geometricprecision; user-select: none; fill: rgb(255, 255, 255);">/Add</text><title>[Add]</title></g><path class="node node-border" d="M5,0h28.145000457763672a5,5 0 0 1 5,5v10.319999694824219a5,5 0 0 1 -5,5h-28.145000457763672a5,5 0 0 1 -5,-5v-10.319999694824219a5,5 0 0 1 5,-5z" style="stroke: rgb(51, 51, 51); fill: none; stroke-width: 1px;"/></g><g id="node-name-/l2/Gemm" class="node graph-node" style="" transform="translate(1834.506986618042,44.25)"><g class="node-item node-item-type node-item-type-layer" transform="translate(0,0)"><path d="M5,0h65a5,5 0 0 1 5,5v15.319999694824219a0,0 0 0 1 0,0h-75a0,0 0 0 1 0,0v-15.319999694824219a5,5 0 0 1 5,-5z" style="stroke: rgb(0, 0, 0); fill: rgb(51, 85, 136); stroke-width: 0px;"/><text x="6" y="14.230000495910645" style="font-family: -apple-system, BlinkMacSystemFont, &quot;Segoe WPC&quot;, &quot;Segoe UI&quot;, &quot;Ubuntu&quot;, &quot;Droid Sans&quot;, sans-serif, &quot;PingFang SC&quot;; font-size: 11px; text-rendering: geometricprecision; user-select: none; fill: rgb(255, 255, 255);">/l2/Gemm</text><title>[Gemm]</title></g><g class="node-argument-list" transform="translate(0,20.31999969482422)"><path d="M0,0h75a0,0 0 0 1 0,0v43.18000030517578a5,5 0 0 1 -5,5h-65a5,5 0 0 1 -5,-5v-43.18000030517578a0,0 0 0 1 0,0z" style="stroke: rgb(0, 0, 0); fill: rgb(255, 255, 255); stroke-width: 0px;"/><g class="node-argument"><rect rx="3" ry="3" x="3" y="3" width="69" height="15.050000190734863" style="fill: transparent;"/><text xml:space="preserve" x="6" y="14.440000534057617" style="font-family: -apple-system, BlinkMacSystemFont, &quot;Segoe WPC&quot;, &quot;Segoe UI&quot;, &quot;Ubuntu&quot;, &quot;Droid Sans&quot;, sans-serif, &quot;PingFang SC&quot;; font-size: 9px; font-weight: normal; text-rendering: geometricprecision; user-select: none;"><title>float32[10,100]</title><tspan style="font-weight: bold;">B</tspan><tspan>〈10×100〉</tspan></text></g><g class="node-argument"><rect rx="3" ry="3" x="3" y="18.050000190734863" width="69" height="15.050000190734863" style="fill: transparent;"/><text xml:space="preserve" x="6" y="29.49000072479248" style="font-family: -apple-system, BlinkMacSystemFont, &quot;Segoe WPC&quot;, &quot;Segoe UI&quot;, &quot;Ubuntu&quot;, &quot;Droid Sans&quot;, sans-serif, &quot;PingFang SC&quot;; font-size: 9px; font-weight: normal; text-rendering: geometricprecision; user-select: none;"><title>float32[10]</title><tspan style="font-weight: bold;">C</tspan><tspan>〈10〉</tspan></text></g><g class="node-argument"><rect rx="3" ry="3" x="3" y="33.10000038146973" width="69" height="12.079999923706055" style="fill: transparent;"/><text xml:space="preserve" x="6" y="42.47000026702881" style="font-family: -apple-system, BlinkMacSystemFont, &quot;Segoe WPC&quot;, &quot;Segoe UI&quot;, &quot;Ubuntu&quot;, &quot;Droid Sans&quot;, sans-serif, &quot;PingFang SC&quot;; font-size: 9px; font-weight: normal; text-rendering: geometricprecision; user-select: none;"><title>int64</title><tspan>transB</tspan><tspan> = 1</tspan></text></g><line class="node" x1="0" x2="75" y1="0" y2="0" style="stroke: rgb(51, 51, 51); fill: none; stroke-width: 1px;"/></g><path class="node node-border" d="M5,0h65a5,5 0 0 1 5,5v58.5a5,5 0 0 1 -5,5h-65a5,5 0 0 1 -5,-5v-58.5a5,5 0 0 1 5,-5z" style="stroke: rgb(51, 51, 51); fill: none; stroke-width: 1px;"/></g><g class="node" style="" transform="translate(1940.7869873046875,68.34000015258789)"><g class="node-item graph-item-output" transform="translate(0,0)"><path d="M5,0h16.407999992370605a5,5 0 0 1 5,5v10.319999694824219a5,5 0 0 1 -5,5h-16.407999992370605a5,5 0 0 1 -5,-5v-10.319999694824219a5,5 0 0 1 5,-5z" style="stroke: rgb(0, 0, 0); fill: rgb(238, 238, 238); stroke-width: 0px;"/><text x="6" y="14.230000495910645" style="font-family: -apple-system, BlinkMacSystemFont, &quot;Segoe WPC&quot;, &quot;Segoe UI&quot;, &quot;Ubuntu&quot;, &quot;Droid Sans&quot;, sans-serif, &quot;PingFang SC&quot;; font-size: 11px; text-rendering: geometricprecision; user-select: none;">29</text><title>float32[1,10]</title></g><path class="node node-border" d="M5,0h16.407999992370605a5,5 0 0 1 5,5v10.319999694824219a5,5 0 0 1 -5,5h-16.407999992370605a5,5 0 0 1 -5,-5v-10.319999694824219a5,5 0 0 1 5,-5z" style="stroke: rgb(51, 51, 51); fill: none; stroke-width: 1px;"/></g></g></g></svg>