<?xml version="1.0" encoding="utf-8" standalone="no"?>
<!DOCTYPE svg PUBLIC "-//W3C//DTD SVG 1.1//EN"
  "http://www.w3.org/Graphics/SVG/1.1/DTD/svg11.dtd">
<svg xmlns:xlink="http://www.w3.org/1999/xlink" width="460.8pt" height="345.6pt" viewBox="0 0 460.8 345.6" xmlns="http://www.w3.org/2000/svg" version="1.1">
 <metadata>
  <rdf:RDF xmlns:dc="http://purl.org/dc/elements/1.1/" xmlns:cc="http://creativecommons.org/ns#" xmlns:rdf="http://www.w3.org/1999/02/22-rdf-syntax-ns#">
   <cc:Work>
    <dc:type rdf:resource="http://purl.org/dc/dcmitype/StillImage"/>
    <dc:date>2025-09-09T13:39:12.475456</dc:date>
    <dc:format>image/svg+xml</dc:format>
    <dc:creator>
     <cc:Agent>
      <dc:title>Matplotlib v3.10.6, https://matplotlib.org/</dc:title>
     </cc:Agent>
    </dc:creator>
   </cc:Work>
  </rdf:RDF>
 </metadata>
 <defs>
  <style type="text/css">*{stroke-linejoin: round; stroke-linecap: butt}</style>
 </defs>
 <g id="figure_1">
  <g id="patch_1">
   <path d="M 0 345.6 
L 460.8 345.6 
L 460.8 0 
L 0 0 
z
" style="fill: #ffffff"/>
  </g>
  <g id="axes_1">
   <g id="patch_2">
    <path d="M 57.6 307.584 
L 414.72 307.584 
L 414.72 41.472 
L 57.6 41.472 
z
" style="fill: #ffffff"/>
   </g>
   <g id="FillBetweenPolyCollection_1">
    <defs>
     <path id="m63fd38c09e" d="M 57.6 -58.726554 
L 57.6 35.861726 
L 146.88 35.861726 
L 236.16 35.861726 
L 236.16 35.861726 
L 263.035958 35.861726 
L 278.757386 35.861726 
L 278.757386 -241.730639 
L 278.757386 -241.730639 
L 263.035958 -228.721417 
L 236.16 -206.482006 
L 236.16 -206.482006 
L 146.88 -132.60428 
L 57.6 -58.726554 
z
" style="stroke: #ffa500; stroke-opacity: 0.1"/>
    </defs>
    <g clip-path="url(#p4c172df1e2)">
     <use xlink:href="#m63fd38c09e" x="0" y="345.6" style="fill: #ffa500; fill-opacity: 0.1; stroke: #ffa500; stroke-opacity: 0.1"/>
    </g>
   </g>
   <g id="FillBetweenPolyCollection_2">
    <defs>
     <path id="m9ffe132611" d="M 278.757386 -242.343356 
L 278.757386 35.861726 
L 289.911916 35.861726 
L 298.564042 35.861726 
L 305.633344 35.861726 
L 311.610353 35.861726 
L 316.787874 35.861726 
L 321.354771 35.861726 
L 325.44 35.861726 
L 329.135539 35.861726 
L 332.509302 35.861726 
L 335.612862 35.861726 
L 338.486311 35.861726 
L 341.161428 35.861726 
L 343.663832 35.861726 
L 346.01448 35.861726 
L 348.230729 35.861726 
L 350.327121 35.861726 
L 352.315958 35.861726 
L 354.207739 35.861726 
L 356.011497 35.861726 
L 357.735061 35.861726 
L 359.38526 35.861726 
L 360.968084 35.861726 
L 362.488821 35.861726 
L 363.952157 35.861726 
L 365.362269 35.861726 
L 366.722893 35.861726 
L 368.037386 35.861726 
L 369.308772 35.861726 
L 370.53979 35.861726 
L 371.732925 35.861726 
L 372.890438 35.861726 
L 374.014395 35.861726 
L 375.106687 35.861726 
L 376.16905 35.861726 
L 377.20308 35.861726 
L 378.210248 35.861726 
L 379.191916 35.861726 
L 380.149343 35.861726 
L 381.083697 35.861726 
L 381.996064 35.861726 
L 382.887455 35.861726 
L 383.758813 35.861726 
L 384.611019 35.861726 
L 385.444897 35.861726 
L 386.261218 35.861726 
L 387.060706 35.861726 
L 387.844042 35.861726 
L 388.611865 35.861726 
L 389.364779 35.861726 
L 390.10335 35.861726 
L 390.828115 35.861726 
L 391.539581 35.861726 
L 392.238227 35.861726 
L 392.924507 35.861726 
L 393.598851 35.861726 
L 394.261668 35.861726 
L 394.913344 35.861726 
L 395.554248 35.861726 
L 396.18473 35.861726 
L 396.805124 35.861726 
L 397.415748 35.861726 
L 398.016904 35.861726 
L 398.608883 35.861726 
L 399.191958 35.861726 
L 399.766396 35.861726 
L 400.332447 35.861726 
L 400.890353 35.861726 
L 401.440345 35.861726 
L 401.982645 35.861726 
L 402.517465 35.861726 
L 403.045008 35.861726 
L 403.56547 35.861726 
L 404.079038 35.861726 
L 404.585892 35.861726 
L 405.086206 35.861726 
L 405.580147 35.861726 
L 406.067874 35.861726 
L 406.549542 35.861726 
L 407.025301 35.861726 
L 407.495292 35.861726 
L 407.959655 35.861726 
L 408.418522 35.861726 
L 408.872022 35.861726 
L 409.320279 35.861726 
L 409.763413 35.861726 
L 410.20154 35.861726 
L 410.634771 35.861726 
L 411.063216 35.861726 
L 411.486977 35.861726 
L 411.906158 35.861726 
L 412.320855 35.861726 
L 412.731163 35.861726 
L 413.137176 35.861726 
L 413.53898 35.861726 
L 413.936664 35.861726 
L 414.33031 35.861726 
L 414.33031 -242.343356 
L 414.33031 -242.343356 
L 413.936664 -242.343356 
L 413.53898 -242.343356 
L 413.137176 -242.343356 
L 412.731163 -242.343356 
L 412.320855 -242.343356 
L 411.906158 -242.343356 
L 411.486977 -242.343356 
L 411.063216 -242.343356 
L 410.634771 -242.343356 
L 410.20154 -242.343356 
L 409.763413 -242.343356 
L 409.320279 -242.343356 
L 408.872022 -242.343356 
L 408.418522 -242.343356 
L 407.959655 -242.343356 
L 407.495292 -242.343356 
L 407.025301 -242.343356 
L 406.549542 -242.343356 
L 406.067874 -242.343356 
L 405.580147 -242.343356 
L 405.086206 -242.343356 
L 404.585892 -242.343356 
L 404.079038 -242.343356 
L 403.56547 -242.343356 
L 403.045008 -242.343356 
L 402.517465 -242.343356 
L 401.982645 -242.343356 
L 401.440345 -242.343356 
L 400.890353 -242.343356 
L 400.332447 -242.343356 
L 399.766396 -242.343356 
L 399.191958 -242.343356 
L 398.608883 -242.343356 
L 398.016904 -242.343356 
L 397.415748 -242.343356 
L 396.805124 -242.343356 
L 396.18473 -242.343356 
L 395.554248 -242.343356 
L 394.913344 -242.343356 
L 394.261668 -242.343356 
L 393.598851 -242.343356 
L 392.924507 -242.343356 
L 392.238227 -242.343356 
L 391.539581 -242.343356 
L 390.828115 -242.343356 
L 390.10335 -242.343356 
L 389.364779 -242.343356 
L 388.611865 -242.343356 
L 387.844042 -242.343356 
L 387.060706 -242.343356 
L 386.261218 -242.343356 
L 385.444897 -242.343356 
L 384.611019 -242.343356 
L 383.758813 -242.343356 
L 382.887455 -242.343356 
L 381.996064 -242.343356 
L 381.083697 -242.343356 
L 380.149343 -242.343356 
L 379.191916 -242.343356 
L 378.210248 -242.343356 
L 377.20308 -242.343356 
L 376.16905 -242.343356 
L 375.106687 -242.343356 
L 374.014395 -242.343356 
L 372.890438 -242.343356 
L 371.732925 -242.343356 
L 370.53979 -242.343356 
L 369.308772 -242.343356 
L 368.037386 -242.343356 
L 366.722893 -242.343356 
L 365.362269 -242.343356 
L 363.952157 -242.343356 
L 362.488821 -242.343356 
L 360.968084 -242.343356 
L 359.38526 -242.343356 
L 357.735061 -242.343356 
L 356.011497 -242.343356 
L 354.207739 -242.343356 
L 352.315958 -242.343356 
L 350.327121 -242.343356 
L 348.230729 -242.343356 
L 346.01448 -242.343356 
L 343.663832 -242.343356 
L 341.161428 -242.343356 
L 338.486311 -242.343356 
L 335.612862 -242.343356 
L 332.509302 -242.343356 
L 329.135539 -242.343356 
L 325.44 -242.343356 
L 321.354771 -242.343356 
L 316.787874 -242.343356 
L 311.610353 -242.343356 
L 305.633344 -242.343356 
L 298.564042 -242.343356 
L 289.911916 -242.343356 
L 278.757386 -242.343356 
z
" style="stroke: #0000ff; stroke-opacity: 0.1"/>
    </defs>
    <g clip-path="url(#p4c172df1e2)">
     <use xlink:href="#m9ffe132611" x="0" y="345.6" style="fill: #0000ff; fill-opacity: 0.1; stroke: #0000ff; stroke-opacity: 0.1"/>
    </g>
   </g>
   <g id="matplotlib.axis_1">
    <g id="xtick_1">
     <g id="line2d_1">
      <path d="M 57.6 307.584 
L 57.6 41.472 
" clip-path="url(#p4c172df1e2)" style="fill: none; stroke: #b0b0b0; stroke-width: 0.8; stroke-linecap: square"/>
     </g>
     <g id="line2d_2">
      <defs>
       <path id="m3c6fdab7ff" d="M 0 0 
L 0 3.5 
" style="stroke: #000000; stroke-width: 0.8"/>
      </defs>
      <g>
       <use xlink:href="#m3c6fdab7ff" x="57.6" y="307.584" style="stroke: #000000; stroke-width: 0.8"/>
      </g>
     </g>
     <g id="text_1">
      <!-- $\mathdefault{10^{-2}}$ -->
      <g transform="translate(45.85 322.182437) scale(0.1 -0.1)">
       <defs>
        <path id="DejaVuSans-31" d="M 794 531 
L 1825 531 
L 1825 4091 
L 703 3866 
L 703 4441 
L 1819 4666 
L 2450 4666 
L 2450 531 
L 3481 531 
L 3481 0 
L 794 0 
L 794 531 
z
" transform="scale(0.015625)"/>
        <path id="DejaVuSans-30" d="M 2034 4250 
Q 1547 4250 1301 3770 
Q 1056 3291 1056 2328 
Q 1056 1369 1301 889 
Q 1547 409 2034 409 
Q 2525 409 2770 889 
Q 3016 1369 3016 2328 
Q 3016 3291 2770 3770 
Q 2525 4250 2034 4250 
z
M 2034 4750 
Q 2819 4750 3233 4129 
Q 3647 3509 3647 2328 
Q 3647 1150 3233 529 
Q 2819 -91 2034 -91 
Q 1250 -91 836 529 
Q 422 1150 422 2328 
Q 422 3509 836 4129 
Q 1250 4750 2034 4750 
z
" transform="scale(0.015625)"/>
        <path id="DejaVuSans-2212" d="M 678 2272 
L 4684 2272 
L 4684 1741 
L 678 1741 
L 678 2272 
z
" transform="scale(0.015625)"/>
        <path id="DejaVuSans-32" d="M 1228 531 
L 3431 531 
L 3431 0 
L 469 0 
L 469 531 
Q 828 903 1448 1529 
Q 2069 2156 2228 2338 
Q 2531 2678 2651 2914 
Q 2772 3150 2772 3378 
Q 2772 3750 2511 3984 
Q 2250 4219 1831 4219 
Q 1534 4219 1204 4116 
Q 875 4013 500 3803 
L 500 4441 
Q 881 4594 1212 4672 
Q 1544 4750 1819 4750 
Q 2544 4750 2975 4387 
Q 3406 4025 3406 3419 
Q 3406 3131 3298 2873 
Q 3191 2616 2906 2266 
Q 2828 2175 2409 1742 
Q 1991 1309 1228 531 
z
" transform="scale(0.015625)"/>
       </defs>
       <use xlink:href="#DejaVuSans-31" transform="translate(0 0.765625)"/>
       <use xlink:href="#DejaVuSans-30" transform="translate(63.623047 0.765625)"/>
       <use xlink:href="#DejaVuSans-2212" transform="translate(128.203125 39.046875) scale(0.7)"/>
       <use xlink:href="#DejaVuSans-32" transform="translate(186.855469 39.046875) scale(0.7)"/>
      </g>
     </g>
    </g>
    <g id="xtick_2">
     <g id="line2d_3">
      <path d="M 146.88 307.584 
L 146.88 41.472 
" clip-path="url(#p4c172df1e2)" style="fill: none; stroke: #b0b0b0; stroke-width: 0.8; stroke-linecap: square"/>
     </g>
     <g id="line2d_4">
      <g>
       <use xlink:href="#m3c6fdab7ff" x="146.88" y="307.584" style="stroke: #000000; stroke-width: 0.8"/>
      </g>
     </g>
     <g id="text_2">
      <!-- $\mathdefault{10^{-1}}$ -->
      <g transform="translate(135.13 322.182437) scale(0.1 -0.1)">
       <use xlink:href="#DejaVuSans-31" transform="translate(0 0.684375)"/>
       <use xlink:href="#DejaVuSans-30" transform="translate(63.623047 0.684375)"/>
       <use xlink:href="#DejaVuSans-2212" transform="translate(128.203125 38.965625) scale(0.7)"/>
       <use xlink:href="#DejaVuSans-31" transform="translate(186.855469 38.965625) scale(0.7)"/>
      </g>
     </g>
    </g>
    <g id="xtick_3">
     <g id="line2d_5">
      <path d="M 236.16 307.584 
L 236.16 41.472 
" clip-path="url(#p4c172df1e2)" style="fill: none; stroke: #b0b0b0; stroke-width: 0.8; stroke-linecap: square"/>
     </g>
     <g id="line2d_6">
      <g>
       <use xlink:href="#m3c6fdab7ff" x="236.16" y="307.584" style="stroke: #000000; stroke-width: 0.8"/>
      </g>
     </g>
     <g id="text_3">
      <!-- $\mathdefault{10^{0}}$ -->
      <g transform="translate(227.36 322.182437) scale(0.1 -0.1)">
       <use xlink:href="#DejaVuSans-31" transform="translate(0 0.765625)"/>
       <use xlink:href="#DejaVuSans-30" transform="translate(63.623047 0.765625)"/>
       <use xlink:href="#DejaVuSans-30" transform="translate(128.203125 39.046875) scale(0.7)"/>
      </g>
     </g>
    </g>
    <g id="xtick_4">
     <g id="line2d_7">
      <path d="M 325.44 307.584 
L 325.44 41.472 
" clip-path="url(#p4c172df1e2)" style="fill: none; stroke: #b0b0b0; stroke-width: 0.8; stroke-linecap: square"/>
     </g>
     <g id="line2d_8">
      <g>
       <use xlink:href="#m3c6fdab7ff" x="325.44" y="307.584" style="stroke: #000000; stroke-width: 0.8"/>
      </g>
     </g>
     <g id="text_4">
      <!-- $\mathdefault{10^{1}}$ -->
      <g transform="translate(316.64 322.182437) scale(0.1 -0.1)">
       <use xlink:href="#DejaVuSans-31" transform="translate(0 0.684375)"/>
       <use xlink:href="#DejaVuSans-30" transform="translate(63.623047 0.684375)"/>
       <use xlink:href="#DejaVuSans-31" transform="translate(128.203125 38.965625) scale(0.7)"/>
      </g>
     </g>
    </g>
    <g id="xtick_5">
     <g id="line2d_9">
      <path d="M 414.72 307.584 
L 414.72 41.472 
" clip-path="url(#p4c172df1e2)" style="fill: none; stroke: #b0b0b0; stroke-width: 0.8; stroke-linecap: square"/>
     </g>
     <g id="line2d_10">
      <g>
       <use xlink:href="#m3c6fdab7ff" x="414.72" y="307.584" style="stroke: #000000; stroke-width: 0.8"/>
      </g>
     </g>
     <g id="text_5">
      <!-- $\mathdefault{10^{2}}$ -->
      <g transform="translate(405.92 322.182437) scale(0.1 -0.1)">
       <use xlink:href="#DejaVuSans-31" transform="translate(0 0.765625)"/>
       <use xlink:href="#DejaVuSans-30" transform="translate(63.623047 0.765625)"/>
       <use xlink:href="#DejaVuSans-32" transform="translate(128.203125 39.046875) scale(0.7)"/>
      </g>
     </g>
    </g>
    <g id="xtick_6">
     <g id="line2d_11">
      <defs>
       <path id="m95b841e3ef" d="M 0 0 
L 0 2 
" style="stroke: #000000; stroke-width: 0.6"/>
      </defs>
      <g>
       <use xlink:href="#m95b841e3ef" x="84.475958" y="307.584" style="stroke: #000000; stroke-width: 0.6"/>
      </g>
     </g>
    </g>
    <g id="xtick_7">
     <g id="line2d_12">
      <g>
       <use xlink:href="#m95b841e3ef" x="100.197386" y="307.584" style="stroke: #000000; stroke-width: 0.6"/>
      </g>
     </g>
    </g>
    <g id="xtick_8">
     <g id="line2d_13">
      <g>
       <use xlink:href="#m95b841e3ef" x="111.351916" y="307.584" style="stroke: #000000; stroke-width: 0.6"/>
      </g>
     </g>
    </g>
    <g id="xtick_9">
     <g id="line2d_14">
      <g>
       <use xlink:href="#m95b841e3ef" x="120.004042" y="307.584" style="stroke: #000000; stroke-width: 0.6"/>
      </g>
     </g>
    </g>
    <g id="xtick_10">
     <g id="line2d_15">
      <g>
       <use xlink:href="#m95b841e3ef" x="127.073344" y="307.584" style="stroke: #000000; stroke-width: 0.6"/>
      </g>
     </g>
    </g>
    <g id="xtick_11">
     <g id="line2d_16">
      <g>
       <use xlink:href="#m95b841e3ef" x="133.050353" y="307.584" style="stroke: #000000; stroke-width: 0.6"/>
      </g>
     </g>
    </g>
    <g id="xtick_12">
     <g id="line2d_17">
      <g>
       <use xlink:href="#m95b841e3ef" x="138.227874" y="307.584" style="stroke: #000000; stroke-width: 0.6"/>
      </g>
     </g>
    </g>
    <g id="xtick_13">
     <g id="line2d_18">
      <g>
       <use xlink:href="#m95b841e3ef" x="142.794771" y="307.584" style="stroke: #000000; stroke-width: 0.6"/>
      </g>
     </g>
    </g>
    <g id="xtick_14">
     <g id="line2d_19">
      <g>
       <use xlink:href="#m95b841e3ef" x="173.755958" y="307.584" style="stroke: #000000; stroke-width: 0.6"/>
      </g>
     </g>
    </g>
    <g id="xtick_15">
     <g id="line2d_20">
      <g>
       <use xlink:href="#m95b841e3ef" x="189.477386" y="307.584" style="stroke: #000000; stroke-width: 0.6"/>
      </g>
     </g>
    </g>
    <g id="xtick_16">
     <g id="line2d_21">
      <g>
       <use xlink:href="#m95b841e3ef" x="200.631916" y="307.584" style="stroke: #000000; stroke-width: 0.6"/>
      </g>
     </g>
    </g>
    <g id="xtick_17">
     <g id="line2d_22">
      <g>
       <use xlink:href="#m95b841e3ef" x="209.284042" y="307.584" style="stroke: #000000; stroke-width: 0.6"/>
      </g>
     </g>
    </g>
    <g id="xtick_18">
     <g id="line2d_23">
      <g>
       <use xlink:href="#m95b841e3ef" x="216.353344" y="307.584" style="stroke: #000000; stroke-width: 0.6"/>
      </g>
     </g>
    </g>
    <g id="xtick_19">
     <g id="line2d_24">
      <g>
       <use xlink:href="#m95b841e3ef" x="222.330353" y="307.584" style="stroke: #000000; stroke-width: 0.6"/>
      </g>
     </g>
    </g>
    <g id="xtick_20">
     <g id="line2d_25">
      <g>
       <use xlink:href="#m95b841e3ef" x="227.507874" y="307.584" style="stroke: #000000; stroke-width: 0.6"/>
      </g>
     </g>
    </g>
    <g id="xtick_21">
     <g id="line2d_26">
      <g>
       <use xlink:href="#m95b841e3ef" x="232.074771" y="307.584" style="stroke: #000000; stroke-width: 0.6"/>
      </g>
     </g>
    </g>
    <g id="xtick_22">
     <g id="line2d_27">
      <g>
       <use xlink:href="#m95b841e3ef" x="263.035958" y="307.584" style="stroke: #000000; stroke-width: 0.6"/>
      </g>
     </g>
    </g>
    <g id="xtick_23">
     <g id="line2d_28">
      <g>
       <use xlink:href="#m95b841e3ef" x="278.757386" y="307.584" style="stroke: #000000; stroke-width: 0.6"/>
      </g>
     </g>
    </g>
    <g id="xtick_24">
     <g id="line2d_29">
      <g>
       <use xlink:href="#m95b841e3ef" x="289.911916" y="307.584" style="stroke: #000000; stroke-width: 0.6"/>
      </g>
     </g>
    </g>
    <g id="xtick_25">
     <g id="line2d_30">
      <g>
       <use xlink:href="#m95b841e3ef" x="298.564042" y="307.584" style="stroke: #000000; stroke-width: 0.6"/>
      </g>
     </g>
    </g>
    <g id="xtick_26">
     <g id="line2d_31">
      <g>
       <use xlink:href="#m95b841e3ef" x="305.633344" y="307.584" style="stroke: #000000; stroke-width: 0.6"/>
      </g>
     </g>
    </g>
    <g id="xtick_27">
     <g id="line2d_32">
      <g>
       <use xlink:href="#m95b841e3ef" x="311.610353" y="307.584" style="stroke: #000000; stroke-width: 0.6"/>
      </g>
     </g>
    </g>
    <g id="xtick_28">
     <g id="line2d_33">
      <g>
       <use xlink:href="#m95b841e3ef" x="316.787874" y="307.584" style="stroke: #000000; stroke-width: 0.6"/>
      </g>
     </g>
    </g>
    <g id="xtick_29">
     <g id="line2d_34">
      <g>
       <use xlink:href="#m95b841e3ef" x="321.354771" y="307.584" style="stroke: #000000; stroke-width: 0.6"/>
      </g>
     </g>
    </g>
    <g id="xtick_30">
     <g id="line2d_35">
      <g>
       <use xlink:href="#m95b841e3ef" x="352.315958" y="307.584" style="stroke: #000000; stroke-width: 0.6"/>
      </g>
     </g>
    </g>
    <g id="xtick_31">
     <g id="line2d_36">
      <g>
       <use xlink:href="#m95b841e3ef" x="368.037386" y="307.584" style="stroke: #000000; stroke-width: 0.6"/>
      </g>
     </g>
    </g>
    <g id="xtick_32">
     <g id="line2d_37">
      <g>
       <use xlink:href="#m95b841e3ef" x="379.191916" y="307.584" style="stroke: #000000; stroke-width: 0.6"/>
      </g>
     </g>
    </g>
    <g id="xtick_33">
     <g id="line2d_38">
      <g>
       <use xlink:href="#m95b841e3ef" x="387.844042" y="307.584" style="stroke: #000000; stroke-width: 0.6"/>
      </g>
     </g>
    </g>
    <g id="xtick_34">
     <g id="line2d_39">
      <g>
       <use xlink:href="#m95b841e3ef" x="394.913344" y="307.584" style="stroke: #000000; stroke-width: 0.6"/>
      </g>
     </g>
    </g>
    <g id="xtick_35">
     <g id="line2d_40">
      <g>
       <use xlink:href="#m95b841e3ef" x="400.890353" y="307.584" style="stroke: #000000; stroke-width: 0.6"/>
      </g>
     </g>
    </g>
    <g id="xtick_36">
     <g id="line2d_41">
      <g>
       <use xlink:href="#m95b841e3ef" x="406.067874" y="307.584" style="stroke: #000000; stroke-width: 0.6"/>
      </g>
     </g>
    </g>
    <g id="xtick_37">
     <g id="line2d_42">
      <g>
       <use xlink:href="#m95b841e3ef" x="410.634771" y="307.584" style="stroke: #000000; stroke-width: 0.6"/>
      </g>
     </g>
    </g>
    <g id="text_6">
     <!-- Arithmetic Intensity (FLOP/Byte) -->
     <g transform="translate(155.736562 335.860562) scale(0.1 -0.1)">
      <defs>
       <path id="DejaVuSans-41" d="M 2188 4044 
L 1331 1722 
L 3047 1722 
L 2188 4044 
z
M 1831 4666 
L 2547 4666 
L 4325 0 
L 3669 0 
L 3244 1197 
L 1141 1197 
L 716 0 
L 50 0 
L 1831 4666 
z
" transform="scale(0.015625)"/>
       <path id="DejaVuSans-72" d="M 2631 2963 
Q 2534 3019 2420 3045 
Q 2306 3072 2169 3072 
Q 1681 3072 1420 2755 
Q 1159 2438 1159 1844 
L 1159 0 
L 581 0 
L 581 3500 
L 1159 3500 
L 1159 2956 
Q 1341 3275 1631 3429 
Q 1922 3584 2338 3584 
Q 2397 3584 2469 3576 
Q 2541 3569 2628 3553 
L 2631 2963 
z
" transform="scale(0.015625)"/>
       <path id="DejaVuSans-69" d="M 603 3500 
L 1178 3500 
L 1178 0 
L 603 0 
L 603 3500 
z
M 603 4863 
L 1178 4863 
L 1178 4134 
L 603 4134 
L 603 4863 
z
" transform="scale(0.015625)"/>
       <path id="DejaVuSans-74" d="M 1172 4494 
L 1172 3500 
L 2356 3500 
L 2356 3053 
L 1172 3053 
L 1172 1153 
Q 1172 725 1289 603 
Q 1406 481 1766 481 
L 2356 481 
L 2356 0 
L 1766 0 
Q 1100 0 847 248 
Q 594 497 594 1153 
L 594 3053 
L 172 3053 
L 172 3500 
L 594 3500 
L 594 4494 
L 1172 4494 
z
" transform="scale(0.015625)"/>
       <path id="DejaVuSans-68" d="M 3513 2113 
L 3513 0 
L 2938 0 
L 2938 2094 
Q 2938 2591 2744 2837 
Q 2550 3084 2163 3084 
Q 1697 3084 1428 2787 
Q 1159 2491 1159 1978 
L 1159 0 
L 581 0 
L 581 4863 
L 1159 4863 
L 1159 2956 
Q 1366 3272 1645 3428 
Q 1925 3584 2291 3584 
Q 2894 3584 3203 3211 
Q 3513 2838 3513 2113 
z
" transform="scale(0.015625)"/>
       <path id="DejaVuSans-6d" d="M 3328 2828 
Q 3544 3216 3844 3400 
Q 4144 3584 4550 3584 
Q 5097 3584 5394 3201 
Q 5691 2819 5691 2113 
L 5691 0 
L 5113 0 
L 5113 2094 
Q 5113 2597 4934 2840 
Q 4756 3084 4391 3084 
Q 3944 3084 3684 2787 
Q 3425 2491 3425 1978 
L 3425 0 
L 2847 0 
L 2847 2094 
Q 2847 2600 2669 2842 
Q 2491 3084 2119 3084 
Q 1678 3084 1418 2786 
Q 1159 2488 1159 1978 
L 1159 0 
L 581 0 
L 581 3500 
L 1159 3500 
L 1159 2956 
Q 1356 3278 1631 3431 
Q 1906 3584 2284 3584 
Q 2666 3584 2933 3390 
Q 3200 3197 3328 2828 
z
" transform="scale(0.015625)"/>
       <path id="DejaVuSans-65" d="M 3597 1894 
L 3597 1613 
L 953 1613 
Q 991 1019 1311 708 
Q 1631 397 2203 397 
Q 2534 397 2845 478 
Q 3156 559 3463 722 
L 3463 178 
Q 3153 47 2828 -22 
Q 2503 -91 2169 -91 
Q 1331 -91 842 396 
Q 353 884 353 1716 
Q 353 2575 817 3079 
Q 1281 3584 2069 3584 
Q 2775 3584 3186 3129 
Q 3597 2675 3597 1894 
z
M 3022 2063 
Q 3016 2534 2758 2815 
Q 2500 3097 2075 3097 
Q 1594 3097 1305 2825 
Q 1016 2553 972 2059 
L 3022 2063 
z
" transform="scale(0.015625)"/>
       <path id="DejaVuSans-63" d="M 3122 3366 
L 3122 2828 
Q 2878 2963 2633 3030 
Q 2388 3097 2138 3097 
Q 1578 3097 1268 2742 
Q 959 2388 959 1747 
Q 959 1106 1268 751 
Q 1578 397 2138 397 
Q 2388 397 2633 464 
Q 2878 531 3122 666 
L 3122 134 
Q 2881 22 2623 -34 
Q 2366 -91 2075 -91 
Q 1284 -91 818 406 
Q 353 903 353 1747 
Q 353 2603 823 3093 
Q 1294 3584 2113 3584 
Q 2378 3584 2631 3529 
Q 2884 3475 3122 3366 
z
" transform="scale(0.015625)"/>
       <path id="DejaVuSans-20" transform="scale(0.015625)"/>
       <path id="DejaVuSans-49" d="M 628 4666 
L 1259 4666 
L 1259 0 
L 628 0 
L 628 4666 
z
" transform="scale(0.015625)"/>
       <path id="DejaVuSans-6e" d="M 3513 2113 
L 3513 0 
L 2938 0 
L 2938 2094 
Q 2938 2591 2744 2837 
Q 2550 3084 2163 3084 
Q 1697 3084 1428 2787 
Q 1159 2491 1159 1978 
L 1159 0 
L 581 0 
L 581 3500 
L 1159 3500 
L 1159 2956 
Q 1366 3272 1645 3428 
Q 1925 3584 2291 3584 
Q 2894 3584 3203 3211 
Q 3513 2838 3513 2113 
z
" transform="scale(0.015625)"/>
       <path id="DejaVuSans-73" d="M 2834 3397 
L 2834 2853 
Q 2591 2978 2328 3040 
Q 2066 3103 1784 3103 
Q 1356 3103 1142 2972 
Q 928 2841 928 2578 
Q 928 2378 1081 2264 
Q 1234 2150 1697 2047 
L 1894 2003 
Q 2506 1872 2764 1633 
Q 3022 1394 3022 966 
Q 3022 478 2636 193 
Q 2250 -91 1575 -91 
Q 1294 -91 989 -36 
Q 684 19 347 128 
L 347 722 
Q 666 556 975 473 
Q 1284 391 1588 391 
Q 1994 391 2212 530 
Q 2431 669 2431 922 
Q 2431 1156 2273 1281 
Q 2116 1406 1581 1522 
L 1381 1569 
Q 847 1681 609 1914 
Q 372 2147 372 2553 
Q 372 3047 722 3315 
Q 1072 3584 1716 3584 
Q 2034 3584 2315 3537 
Q 2597 3491 2834 3397 
z
" transform="scale(0.015625)"/>
       <path id="DejaVuSans-79" d="M 2059 -325 
Q 1816 -950 1584 -1140 
Q 1353 -1331 966 -1331 
L 506 -1331 
L 506 -850 
L 844 -850 
Q 1081 -850 1212 -737 
Q 1344 -625 1503 -206 
L 1606 56 
L 191 3500 
L 800 3500 
L 1894 763 
L 2988 3500 
L 3597 3500 
L 2059 -325 
z
" transform="scale(0.015625)"/>
       <path id="DejaVuSans-28" d="M 1984 4856 
Q 1566 4138 1362 3434 
Q 1159 2731 1159 2009 
Q 1159 1288 1364 580 
Q 1569 -128 1984 -844 
L 1484 -844 
Q 1016 -109 783 600 
Q 550 1309 550 2009 
Q 550 2706 781 3412 
Q 1013 4119 1484 4856 
L 1984 4856 
z
" transform="scale(0.015625)"/>
       <path id="DejaVuSans-46" d="M 628 4666 
L 3309 4666 
L 3309 4134 
L 1259 4134 
L 1259 2759 
L 3109 2759 
L 3109 2228 
L 1259 2228 
L 1259 0 
L 628 0 
L 628 4666 
z
" transform="scale(0.015625)"/>
       <path id="DejaVuSans-4c" d="M 628 4666 
L 1259 4666 
L 1259 531 
L 3531 531 
L 3531 0 
L 628 0 
L 628 4666 
z
" transform="scale(0.015625)"/>
       <path id="DejaVuSans-4f" d="M 2522 4238 
Q 1834 4238 1429 3725 
Q 1025 3213 1025 2328 
Q 1025 1447 1429 934 
Q 1834 422 2522 422 
Q 3209 422 3611 934 
Q 4013 1447 4013 2328 
Q 4013 3213 3611 3725 
Q 3209 4238 2522 4238 
z
M 2522 4750 
Q 3503 4750 4090 4092 
Q 4678 3434 4678 2328 
Q 4678 1225 4090 567 
Q 3503 -91 2522 -91 
Q 1538 -91 948 565 
Q 359 1222 359 2328 
Q 359 3434 948 4092 
Q 1538 4750 2522 4750 
z
" transform="scale(0.015625)"/>
       <path id="DejaVuSans-50" d="M 1259 4147 
L 1259 2394 
L 2053 2394 
Q 2494 2394 2734 2622 
Q 2975 2850 2975 3272 
Q 2975 3691 2734 3919 
Q 2494 4147 2053 4147 
L 1259 4147 
z
M 628 4666 
L 2053 4666 
Q 2838 4666 3239 4311 
Q 3641 3956 3641 3272 
Q 3641 2581 3239 2228 
Q 2838 1875 2053 1875 
L 1259 1875 
L 1259 0 
L 628 0 
L 628 4666 
z
" transform="scale(0.015625)"/>
       <path id="DejaVuSans-2f" d="M 1625 4666 
L 2156 4666 
L 531 -594 
L 0 -594 
L 1625 4666 
z
" transform="scale(0.015625)"/>
       <path id="DejaVuSans-42" d="M 1259 2228 
L 1259 519 
L 2272 519 
Q 2781 519 3026 730 
Q 3272 941 3272 1375 
Q 3272 1813 3026 2020 
Q 2781 2228 2272 2228 
L 1259 2228 
z
M 1259 4147 
L 1259 2741 
L 2194 2741 
Q 2656 2741 2882 2914 
Q 3109 3088 3109 3444 
Q 3109 3797 2882 3972 
Q 2656 4147 2194 4147 
L 1259 4147 
z
M 628 4666 
L 2241 4666 
Q 2963 4666 3353 4366 
Q 3744 4066 3744 3513 
Q 3744 3084 3544 2831 
Q 3344 2578 2956 2516 
Q 3422 2416 3680 2098 
Q 3938 1781 3938 1306 
Q 3938 681 3513 340 
Q 3088 0 2303 0 
L 628 0 
L 628 4666 
z
" transform="scale(0.015625)"/>
       <path id="DejaVuSans-29" d="M 513 4856 
L 1013 4856 
Q 1481 4119 1714 3412 
Q 1947 2706 1947 2009 
Q 1947 1309 1714 600 
Q 1481 -109 1013 -844 
L 513 -844 
Q 928 -128 1133 580 
Q 1338 1288 1338 2009 
Q 1338 2731 1133 3434 
Q 928 4138 513 4856 
z
" transform="scale(0.015625)"/>
      </defs>
      <use xlink:href="#DejaVuSans-41"/>
      <use xlink:href="#DejaVuSans-72" transform="translate(68.408203 0)"/>
      <use xlink:href="#DejaVuSans-69" transform="translate(109.521484 0)"/>
      <use xlink:href="#DejaVuSans-74" transform="translate(137.304688 0)"/>
      <use xlink:href="#DejaVuSans-68" transform="translate(176.513672 0)"/>
      <use xlink:href="#DejaVuSans-6d" transform="translate(239.892578 0)"/>
      <use xlink:href="#DejaVuSans-65" transform="translate(337.304688 0)"/>
      <use xlink:href="#DejaVuSans-74" transform="translate(398.828125 0)"/>
      <use xlink:href="#DejaVuSans-69" transform="translate(438.037109 0)"/>
      <use xlink:href="#DejaVuSans-63" transform="translate(465.820312 0)"/>
      <use xlink:href="#DejaVuSans-20" transform="translate(520.800781 0)"/>
      <use xlink:href="#DejaVuSans-49" transform="translate(552.587891 0)"/>
      <use xlink:href="#DejaVuSans-6e" transform="translate(582.080078 0)"/>
      <use xlink:href="#DejaVuSans-74" transform="translate(645.458984 0)"/>
      <use xlink:href="#DejaVuSans-65" transform="translate(684.667969 0)"/>
      <use xlink:href="#DejaVuSans-6e" transform="translate(746.191406 0)"/>
      <use xlink:href="#DejaVuSans-73" transform="translate(809.570312 0)"/>
      <use xlink:href="#DejaVuSans-69" transform="translate(861.669922 0)"/>
      <use xlink:href="#DejaVuSans-74" transform="translate(889.453125 0)"/>
      <use xlink:href="#DejaVuSans-79" transform="translate(928.662109 0)"/>
      <use xlink:href="#DejaVuSans-20" transform="translate(987.841797 0)"/>
      <use xlink:href="#DejaVuSans-28" transform="translate(1019.628906 0)"/>
      <use xlink:href="#DejaVuSans-46" transform="translate(1058.642578 0)"/>
      <use xlink:href="#DejaVuSans-4c" transform="translate(1116.162109 0)"/>
      <use xlink:href="#DejaVuSans-4f" transform="translate(1168.25 0)"/>
      <use xlink:href="#DejaVuSans-50" transform="translate(1246.960938 0)"/>
      <use xlink:href="#DejaVuSans-2f" transform="translate(1307.263672 0)"/>
      <use xlink:href="#DejaVuSans-42" transform="translate(1340.955078 0)"/>
      <use xlink:href="#DejaVuSans-79" transform="translate(1409.558594 0)"/>
      <use xlink:href="#DejaVuSans-74" transform="translate(1468.738281 0)"/>
      <use xlink:href="#DejaVuSans-65" transform="translate(1507.947266 0)"/>
      <use xlink:href="#DejaVuSans-29" transform="translate(1569.470703 0)"/>
     </g>
    </g>
   </g>
   <g id="matplotlib.axis_2">
    <g id="ytick_1">
     <g id="line2d_43">
      <path d="M 57.6 307.584 
L 414.72 307.584 
" clip-path="url(#p4c172df1e2)" style="fill: none; stroke: #b0b0b0; stroke-width: 0.8; stroke-linecap: square"/>
     </g>
     <g id="line2d_44">
      <defs>
       <path id="m4d52ebd7b2" d="M 0 0 
L -3.5 0 
" style="stroke: #000000; stroke-width: 0.8"/>
      </defs>
      <g>
       <use xlink:href="#m4d52ebd7b2" x="57.6" y="307.584" style="stroke: #000000; stroke-width: 0.8"/>
      </g>
     </g>
     <g id="text_7">
      <!-- $\mathdefault{10^{-1}}$ -->
      <g transform="translate(27.1 311.383219) scale(0.1 -0.1)">
       <use xlink:href="#DejaVuSans-31" transform="translate(0 0.684375)"/>
       <use xlink:href="#DejaVuSans-30" transform="translate(63.623047 0.684375)"/>
       <use xlink:href="#DejaVuSans-2212" transform="translate(128.203125 38.965625) scale(0.7)"/>
       <use xlink:href="#DejaVuSans-31" transform="translate(186.855469 38.965625) scale(0.7)"/>
      </g>
     </g>
    </g>
    <g id="ytick_2">
     <g id="line2d_45">
      <path d="M 57.6 233.706274 
L 414.72 233.706274 
" clip-path="url(#p4c172df1e2)" style="fill: none; stroke: #b0b0b0; stroke-width: 0.8; stroke-linecap: square"/>
     </g>
     <g id="line2d_46">
      <g>
       <use xlink:href="#m4d52ebd7b2" x="57.6" y="233.706274" style="stroke: #000000; stroke-width: 0.8"/>
      </g>
     </g>
     <g id="text_8">
      <!-- $\mathdefault{10^{0}}$ -->
      <g transform="translate(33 237.505493) scale(0.1 -0.1)">
       <use xlink:href="#DejaVuSans-31" transform="translate(0 0.765625)"/>
       <use xlink:href="#DejaVuSans-30" transform="translate(63.623047 0.765625)"/>
       <use xlink:href="#DejaVuSans-30" transform="translate(128.203125 39.046875) scale(0.7)"/>
      </g>
     </g>
    </g>
    <g id="ytick_3">
     <g id="line2d_47">
      <path d="M 57.6 159.828549 
L 414.72 159.828549 
" clip-path="url(#p4c172df1e2)" style="fill: none; stroke: #b0b0b0; stroke-width: 0.8; stroke-linecap: square"/>
     </g>
     <g id="line2d_48">
      <g>
       <use xlink:href="#m4d52ebd7b2" x="57.6" y="159.828549" style="stroke: #000000; stroke-width: 0.8"/>
      </g>
     </g>
     <g id="text_9">
      <!-- $\mathdefault{10^{1}}$ -->
      <g transform="translate(33 163.627767) scale(0.1 -0.1)">
       <use xlink:href="#DejaVuSans-31" transform="translate(0 0.684375)"/>
       <use xlink:href="#DejaVuSans-30" transform="translate(63.623047 0.684375)"/>
       <use xlink:href="#DejaVuSans-31" transform="translate(128.203125 38.965625) scale(0.7)"/>
      </g>
     </g>
    </g>
    <g id="ytick_4">
     <g id="line2d_49">
      <path d="M 57.6 85.950823 
L 414.72 85.950823 
" clip-path="url(#p4c172df1e2)" style="fill: none; stroke: #b0b0b0; stroke-width: 0.8; stroke-linecap: square"/>
     </g>
     <g id="line2d_50">
      <g>
       <use xlink:href="#m4d52ebd7b2" x="57.6" y="85.950823" style="stroke: #000000; stroke-width: 0.8"/>
      </g>
     </g>
     <g id="text_10">
      <!-- $\mathdefault{10^{2}}$ -->
      <g transform="translate(33 89.750042) scale(0.1 -0.1)">
       <use xlink:href="#DejaVuSans-31" transform="translate(0 0.765625)"/>
       <use xlink:href="#DejaVuSans-30" transform="translate(63.623047 0.765625)"/>
       <use xlink:href="#DejaVuSans-32" transform="translate(128.203125 39.046875) scale(0.7)"/>
      </g>
     </g>
    </g>
    <g id="ytick_5">
     <g id="line2d_51">
      <defs>
       <path id="mf578b3117f" d="M 0 0 
L -2 0 
" style="stroke: #000000; stroke-width: 0.6"/>
      </defs>
      <g>
       <use xlink:href="#mf578b3117f" x="57.6" y="285.344589" style="stroke: #000000; stroke-width: 0.6"/>
      </g>
     </g>
    </g>
    <g id="ytick_6">
     <g id="line2d_52">
      <g>
       <use xlink:href="#mf578b3117f" x="57.6" y="272.335367" style="stroke: #000000; stroke-width: 0.6"/>
      </g>
     </g>
    </g>
    <g id="ytick_7">
     <g id="line2d_53">
      <g>
       <use xlink:href="#mf578b3117f" x="57.6" y="263.105177" style="stroke: #000000; stroke-width: 0.6"/>
      </g>
     </g>
    </g>
    <g id="ytick_8">
     <g id="line2d_54">
      <g>
       <use xlink:href="#mf578b3117f" x="57.6" y="255.945686" style="stroke: #000000; stroke-width: 0.6"/>
      </g>
     </g>
    </g>
    <g id="ytick_9">
     <g id="line2d_55">
      <g>
       <use xlink:href="#mf578b3117f" x="57.6" y="250.095955" style="stroke: #000000; stroke-width: 0.6"/>
      </g>
     </g>
    </g>
    <g id="ytick_10">
     <g id="line2d_56">
      <g>
       <use xlink:href="#mf578b3117f" x="57.6" y="245.150079" style="stroke: #000000; stroke-width: 0.6"/>
      </g>
     </g>
    </g>
    <g id="ytick_11">
     <g id="line2d_57">
      <g>
       <use xlink:href="#mf578b3117f" x="57.6" y="240.865766" style="stroke: #000000; stroke-width: 0.6"/>
      </g>
     </g>
    </g>
    <g id="ytick_12">
     <g id="line2d_58">
      <g>
       <use xlink:href="#mf578b3117f" x="57.6" y="237.086734" style="stroke: #000000; stroke-width: 0.6"/>
      </g>
     </g>
    </g>
    <g id="ytick_13">
     <g id="line2d_59">
      <g>
       <use xlink:href="#mf578b3117f" x="57.6" y="211.466863" style="stroke: #000000; stroke-width: 0.6"/>
      </g>
     </g>
    </g>
    <g id="ytick_14">
     <g id="line2d_60">
      <g>
       <use xlink:href="#mf578b3117f" x="57.6" y="198.457641" style="stroke: #000000; stroke-width: 0.6"/>
      </g>
     </g>
    </g>
    <g id="ytick_15">
     <g id="line2d_61">
      <g>
       <use xlink:href="#mf578b3117f" x="57.6" y="189.227451" style="stroke: #000000; stroke-width: 0.6"/>
      </g>
     </g>
    </g>
    <g id="ytick_16">
     <g id="line2d_62">
      <g>
       <use xlink:href="#mf578b3117f" x="57.6" y="182.06796" style="stroke: #000000; stroke-width: 0.6"/>
      </g>
     </g>
    </g>
    <g id="ytick_17">
     <g id="line2d_63">
      <g>
       <use xlink:href="#mf578b3117f" x="57.6" y="176.21823" style="stroke: #000000; stroke-width: 0.6"/>
      </g>
     </g>
    </g>
    <g id="ytick_18">
     <g id="line2d_64">
      <g>
       <use xlink:href="#mf578b3117f" x="57.6" y="171.272353" style="stroke: #000000; stroke-width: 0.6"/>
      </g>
     </g>
    </g>
    <g id="ytick_19">
     <g id="line2d_65">
      <g>
       <use xlink:href="#mf578b3117f" x="57.6" y="166.98804" style="stroke: #000000; stroke-width: 0.6"/>
      </g>
     </g>
    </g>
    <g id="ytick_20">
     <g id="line2d_66">
      <g>
       <use xlink:href="#mf578b3117f" x="57.6" y="163.209008" style="stroke: #000000; stroke-width: 0.6"/>
      </g>
     </g>
    </g>
    <g id="ytick_21">
     <g id="line2d_67">
      <g>
       <use xlink:href="#mf578b3117f" x="57.6" y="137.589137" style="stroke: #000000; stroke-width: 0.6"/>
      </g>
     </g>
    </g>
    <g id="ytick_22">
     <g id="line2d_68">
      <g>
       <use xlink:href="#mf578b3117f" x="57.6" y="124.579915" style="stroke: #000000; stroke-width: 0.6"/>
      </g>
     </g>
    </g>
    <g id="ytick_23">
     <g id="line2d_69">
      <g>
       <use xlink:href="#mf578b3117f" x="57.6" y="115.349726" style="stroke: #000000; stroke-width: 0.6"/>
      </g>
     </g>
    </g>
    <g id="ytick_24">
     <g id="line2d_70">
      <g>
       <use xlink:href="#mf578b3117f" x="57.6" y="108.190234" style="stroke: #000000; stroke-width: 0.6"/>
      </g>
     </g>
    </g>
    <g id="ytick_25">
     <g id="line2d_71">
      <g>
       <use xlink:href="#mf578b3117f" x="57.6" y="102.340504" style="stroke: #000000; stroke-width: 0.6"/>
      </g>
     </g>
    </g>
    <g id="ytick_26">
     <g id="line2d_72">
      <g>
       <use xlink:href="#mf578b3117f" x="57.6" y="97.394627" style="stroke: #000000; stroke-width: 0.6"/>
      </g>
     </g>
    </g>
    <g id="ytick_27">
     <g id="line2d_73">
      <g>
       <use xlink:href="#mf578b3117f" x="57.6" y="93.110314" style="stroke: #000000; stroke-width: 0.6"/>
      </g>
     </g>
    </g>
    <g id="ytick_28">
     <g id="line2d_74">
      <g>
       <use xlink:href="#mf578b3117f" x="57.6" y="89.331282" style="stroke: #000000; stroke-width: 0.6"/>
      </g>
     </g>
    </g>
    <g id="ytick_29">
     <g id="line2d_75">
      <g>
       <use xlink:href="#mf578b3117f" x="57.6" y="63.711411" style="stroke: #000000; stroke-width: 0.6"/>
      </g>
     </g>
    </g>
    <g id="ytick_30">
     <g id="line2d_76">
      <g>
       <use xlink:href="#mf578b3117f" x="57.6" y="50.70219" style="stroke: #000000; stroke-width: 0.6"/>
      </g>
     </g>
    </g>
    <g id="ytick_31">
     <g id="line2d_77">
      <g>
       <use xlink:href="#mf578b3117f" x="57.6" y="41.472" style="stroke: #000000; stroke-width: 0.6"/>
      </g>
     </g>
    </g>
    <g id="text_11">
     <!-- Performance (GFLOP/s) -->
     <g transform="translate(21.020312 232.295187) rotate(-90) scale(0.1 -0.1)">
      <defs>
       <path id="DejaVuSans-66" d="M 2375 4863 
L 2375 4384 
L 1825 4384 
Q 1516 4384 1395 4259 
Q 1275 4134 1275 3809 
L 1275 3500 
L 2222 3500 
L 2222 3053 
L 1275 3053 
L 1275 0 
L 697 0 
L 697 3053 
L 147 3053 
L 147 3500 
L 697 3500 
L 697 3744 
Q 697 4328 969 4595 
Q 1241 4863 1831 4863 
L 2375 4863 
z
" transform="scale(0.015625)"/>
       <path id="DejaVuSans-6f" d="M 1959 3097 
Q 1497 3097 1228 2736 
Q 959 2375 959 1747 
Q 959 1119 1226 758 
Q 1494 397 1959 397 
Q 2419 397 2687 759 
Q 2956 1122 2956 1747 
Q 2956 2369 2687 2733 
Q 2419 3097 1959 3097 
z
M 1959 3584 
Q 2709 3584 3137 3096 
Q 3566 2609 3566 1747 
Q 3566 888 3137 398 
Q 2709 -91 1959 -91 
Q 1206 -91 779 398 
Q 353 888 353 1747 
Q 353 2609 779 3096 
Q 1206 3584 1959 3584 
z
" transform="scale(0.015625)"/>
       <path id="DejaVuSans-61" d="M 2194 1759 
Q 1497 1759 1228 1600 
Q 959 1441 959 1056 
Q 959 750 1161 570 
Q 1363 391 1709 391 
Q 2188 391 2477 730 
Q 2766 1069 2766 1631 
L 2766 1759 
L 2194 1759 
z
M 3341 1997 
L 3341 0 
L 2766 0 
L 2766 531 
Q 2569 213 2275 61 
Q 1981 -91 1556 -91 
Q 1019 -91 701 211 
Q 384 513 384 1019 
Q 384 1609 779 1909 
Q 1175 2209 1959 2209 
L 2766 2209 
L 2766 2266 
Q 2766 2663 2505 2880 
Q 2244 3097 1772 3097 
Q 1472 3097 1187 3025 
Q 903 2953 641 2809 
L 641 3341 
Q 956 3463 1253 3523 
Q 1550 3584 1831 3584 
Q 2591 3584 2966 3190 
Q 3341 2797 3341 1997 
z
" transform="scale(0.015625)"/>
       <path id="DejaVuSans-47" d="M 3809 666 
L 3809 1919 
L 2778 1919 
L 2778 2438 
L 4434 2438 
L 4434 434 
Q 4069 175 3628 42 
Q 3188 -91 2688 -91 
Q 1594 -91 976 548 
Q 359 1188 359 2328 
Q 359 3472 976 4111 
Q 1594 4750 2688 4750 
Q 3144 4750 3555 4637 
Q 3966 4525 4313 4306 
L 4313 3634 
Q 3963 3931 3569 4081 
Q 3175 4231 2741 4231 
Q 1884 4231 1454 3753 
Q 1025 3275 1025 2328 
Q 1025 1384 1454 906 
Q 1884 428 2741 428 
Q 3075 428 3337 486 
Q 3600 544 3809 666 
z
" transform="scale(0.015625)"/>
      </defs>
      <use xlink:href="#DejaVuSans-50"/>
      <use xlink:href="#DejaVuSans-65" transform="translate(56.677734 0)"/>
      <use xlink:href="#DejaVuSans-72" transform="translate(118.201172 0)"/>
      <use xlink:href="#DejaVuSans-66" transform="translate(159.314453 0)"/>
      <use xlink:href="#DejaVuSans-6f" transform="translate(194.519531 0)"/>
      <use xlink:href="#DejaVuSans-72" transform="translate(255.701172 0)"/>
      <use xlink:href="#DejaVuSans-6d" transform="translate(295.064453 0)"/>
      <use xlink:href="#DejaVuSans-61" transform="translate(392.476562 0)"/>
      <use xlink:href="#DejaVuSans-6e" transform="translate(453.755859 0)"/>
      <use xlink:href="#DejaVuSans-63" transform="translate(517.134766 0)"/>
      <use xlink:href="#DejaVuSans-65" transform="translate(572.115234 0)"/>
      <use xlink:href="#DejaVuSans-20" transform="translate(633.638672 0)"/>
      <use xlink:href="#DejaVuSans-28" transform="translate(665.425781 0)"/>
      <use xlink:href="#DejaVuSans-47" transform="translate(704.439453 0)"/>
      <use xlink:href="#DejaVuSans-46" transform="translate(781.929688 0)"/>
      <use xlink:href="#DejaVuSans-4c" transform="translate(839.449219 0)"/>
      <use xlink:href="#DejaVuSans-4f" transform="translate(891.537109 0)"/>
      <use xlink:href="#DejaVuSans-50" transform="translate(970.248047 0)"/>
      <use xlink:href="#DejaVuSans-2f" transform="translate(1030.550781 0)"/>
      <use xlink:href="#DejaVuSans-73" transform="translate(1064.242188 0)"/>
      <use xlink:href="#DejaVuSans-29" transform="translate(1116.341797 0)"/>
     </g>
    </g>
   </g>
   <g id="line2d_78">
    <path d="M 57.6 286.873446 
L 146.88 212.99572 
L 236.16 139.117994 
L 236.16 139.117994 
L 263.035958 116.878583 
L 278.757386 103.869361 
L 289.911916 94.639171 
L 298.564042 87.47968 
L 305.633344 81.62995 
L 311.610353 76.684073 
L 316.787874 72.39976 
L 321.354771 68.620728 
L 325.44 65.240269 
L 329.135539 62.182271 
L 332.509302 59.390538 
L 335.612862 56.822393 
L 338.486311 54.444662 
L 341.161428 52.231047 
L 343.663832 50.160348 
L 346.01448 48.215226 
L 348.230729 46.381316 
L 350.327121 44.646587 
L 352.315958 43.000857 
L 354.207739 41.43544 
L 356.011497 39.94286 
L 357.735061 38.516639 
L 359.38526 37.151127 
L 360.968084 35.841366 
L 362.488821 34.582981 
L 363.952157 33.372095 
L 365.362269 32.20525 
L 366.722893 31.079356 
L 368.037386 29.991635 
L 369.308772 28.939584 
L 370.53979 27.920937 
L 371.732925 26.933638 
L 372.890438 25.975815 
L 374.014395 25.045759 
L 375.106687 24.141905 
L 376.16905 23.262817 
L 377.20308 22.407175 
L 378.210248 21.57376 
L 379.191916 20.761446 
L 380.149343 19.969191 
L 381.083697 19.196028 
L 381.996064 18.44106 
L 382.887455 17.703448 
L 383.758813 16.982414 
L 384.611019 16.277227 
L 385.444897 15.587207 
L 386.261218 14.911715 
L 387.060706 14.250152 
L 387.844042 13.601954 
L 388.611865 12.966593 
L 389.364779 12.34357 
L 390.10335 11.732415 
L 390.828115 11.132683 
L 391.539581 10.543957 
L 392.238227 9.965839 
L 392.924507 9.397953 
L 393.598851 8.839945 
L 394.261668 8.291475 
L 394.913344 7.752224 
L 395.554248 7.221886 
L 396.18473 6.700173 
L 396.805124 6.186807 
L 397.415748 5.681526 
L 398.016904 5.184079 
L 398.608883 4.694227 
L 399.191958 4.211741 
L 399.766396 3.736403 
L 400.332447 3.268006 
L 400.890353 2.806347 
L 401.440345 2.351238 
L 401.982645 1.902494 
L 402.517465 1.459939 
L 403.045008 1.023406 
L 403.56547 0.592733 
L 404.079038 0.167764 
L 404.585892 -0.25165 
L 405.086206 -0.665652 
L 405.49026 -1 
" clip-path="url(#p4c172df1e2)" style="fill: none; stroke: #ffa500; stroke-width: 1.5; stroke-linecap: square"/>
   </g>
   <g id="line2d_79">
    <path d="M 57.6 103.256644 
L 146.88 103.256644 
L 236.16 103.256644 
L 236.16 103.256644 
L 263.035958 103.256644 
L 278.757386 103.256644 
L 289.911916 103.256644 
L 298.564042 103.256644 
L 305.633344 103.256644 
L 311.610353 103.256644 
L 316.787874 103.256644 
L 321.354771 103.256644 
L 325.44 103.256644 
L 329.135539 103.256644 
L 332.509302 103.256644 
L 335.612862 103.256644 
L 338.486311 103.256644 
L 341.161428 103.256644 
L 343.663832 103.256644 
L 346.01448 103.256644 
L 348.230729 103.256644 
L 350.327121 103.256644 
L 352.315958 103.256644 
L 354.207739 103.256644 
L 356.011497 103.256644 
L 357.735061 103.256644 
L 359.38526 103.256644 
L 360.968084 103.256644 
L 362.488821 103.256644 
L 363.952157 103.256644 
L 365.362269 103.256644 
L 366.722893 103.256644 
L 368.037386 103.256644 
L 369.308772 103.256644 
L 370.53979 103.256644 
L 371.732925 103.256644 
L 372.890438 103.256644 
L 374.014395 103.256644 
L 375.106687 103.256644 
L 376.16905 103.256644 
L 377.20308 103.256644 
L 378.210248 103.256644 
L 379.191916 103.256644 
L 380.149343 103.256644 
L 381.083697 103.256644 
L 381.996064 103.256644 
L 382.887455 103.256644 
L 383.758813 103.256644 
L 384.611019 103.256644 
L 385.444897 103.256644 
L 386.261218 103.256644 
L 387.060706 103.256644 
L 387.844042 103.256644 
L 388.611865 103.256644 
L 389.364779 103.256644 
L 390.10335 103.256644 
L 390.828115 103.256644 
L 391.539581 103.256644 
L 392.238227 103.256644 
L 392.924507 103.256644 
L 393.598851 103.256644 
L 394.261668 103.256644 
L 394.913344 103.256644 
L 395.554248 103.256644 
L 396.18473 103.256644 
L 396.805124 103.256644 
L 397.415748 103.256644 
L 398.016904 103.256644 
L 398.608883 103.256644 
L 399.191958 103.256644 
L 399.766396 103.256644 
L 400.332447 103.256644 
L 400.890353 103.256644 
L 401.440345 103.256644 
L 401.982645 103.256644 
L 402.517465 103.256644 
L 403.045008 103.256644 
L 403.56547 103.256644 
L 404.079038 103.256644 
L 404.585892 103.256644 
L 405.086206 103.256644 
L 405.580147 103.256644 
L 406.067874 103.256644 
L 406.549542 103.256644 
L 407.025301 103.256644 
L 407.495292 103.256644 
L 407.959655 103.256644 
L 408.418522 103.256644 
L 408.872022 103.256644 
L 409.320279 103.256644 
L 409.763413 103.256644 
L 410.20154 103.256644 
L 410.634771 103.256644 
L 411.063216 103.256644 
L 411.486977 103.256644 
L 411.906158 103.256644 
L 412.320855 103.256644 
L 412.731163 103.256644 
L 413.137176 103.256644 
L 413.53898 103.256644 
L 413.936664 103.256644 
L 414.33031 103.256644 
" clip-path="url(#p4c172df1e2)" style="fill: none; stroke: #ff0000; stroke-width: 1.5; stroke-linecap: square"/>
   </g>
   <g id="patch_3">
    <path d="M 57.6 307.584 
L 57.6 41.472 
" style="fill: none; stroke: #000000; stroke-width: 0.8; stroke-linejoin: miter; stroke-linecap: square"/>
   </g>
   <g id="patch_4">
    <path d="M 414.72 307.584 
L 414.72 41.472 
" style="fill: none; stroke: #000000; stroke-width: 0.8; stroke-linejoin: miter; stroke-linecap: square"/>
   </g>
   <g id="patch_5">
    <path d="M 57.6 307.584 
L 414.72 307.584 
" style="fill: none; stroke: #000000; stroke-width: 0.8; stroke-linejoin: miter; stroke-linecap: square"/>
   </g>
   <g id="patch_6">
    <path d="M 57.6 41.472 
L 414.72 41.472 
" style="fill: none; stroke: #000000; stroke-width: 0.8; stroke-linejoin: miter; stroke-linecap: square"/>
   </g>
   <g id="text_12">
    <!-- Memory Bound 19.07 GB/s -->
    <g style="fill: #ffa500" transform="translate(84.475958 130.700119) scale(0.1 -0.1)">
     <defs>
      <path id="DejaVuSans-4d" d="M 628 4666 
L 1569 4666 
L 2759 1491 
L 3956 4666 
L 4897 4666 
L 4897 0 
L 4281 0 
L 4281 4097 
L 3078 897 
L 2444 897 
L 1241 4097 
L 1241 0 
L 628 0 
L 628 4666 
z
" transform="scale(0.015625)"/>
      <path id="DejaVuSans-75" d="M 544 1381 
L 544 3500 
L 1119 3500 
L 1119 1403 
Q 1119 906 1312 657 
Q 1506 409 1894 409 
Q 2359 409 2629 706 
Q 2900 1003 2900 1516 
L 2900 3500 
L 3475 3500 
L 3475 0 
L 2900 0 
L 2900 538 
Q 2691 219 2414 64 
Q 2138 -91 1772 -91 
Q 1169 -91 856 284 
Q 544 659 544 1381 
z
M 1991 3584 
L 1991 3584 
z
" transform="scale(0.015625)"/>
      <path id="DejaVuSans-64" d="M 2906 2969 
L 2906 4863 
L 3481 4863 
L 3481 0 
L 2906 0 
L 2906 525 
Q 2725 213 2448 61 
Q 2172 -91 1784 -91 
Q 1150 -91 751 415 
Q 353 922 353 1747 
Q 353 2572 751 3078 
Q 1150 3584 1784 3584 
Q 2172 3584 2448 3432 
Q 2725 3281 2906 2969 
z
M 947 1747 
Q 947 1113 1208 752 
Q 1469 391 1925 391 
Q 2381 391 2643 752 
Q 2906 1113 2906 1747 
Q 2906 2381 2643 2742 
Q 2381 3103 1925 3103 
Q 1469 3103 1208 2742 
Q 947 2381 947 1747 
z
" transform="scale(0.015625)"/>
      <path id="DejaVuSans-39" d="M 703 97 
L 703 672 
Q 941 559 1184 500 
Q 1428 441 1663 441 
Q 2288 441 2617 861 
Q 2947 1281 2994 2138 
Q 2813 1869 2534 1725 
Q 2256 1581 1919 1581 
Q 1219 1581 811 2004 
Q 403 2428 403 3163 
Q 403 3881 828 4315 
Q 1253 4750 1959 4750 
Q 2769 4750 3195 4129 
Q 3622 3509 3622 2328 
Q 3622 1225 3098 567 
Q 2575 -91 1691 -91 
Q 1453 -91 1209 -44 
Q 966 3 703 97 
z
M 1959 2075 
Q 2384 2075 2632 2365 
Q 2881 2656 2881 3163 
Q 2881 3666 2632 3958 
Q 2384 4250 1959 4250 
Q 1534 4250 1286 3958 
Q 1038 3666 1038 3163 
Q 1038 2656 1286 2365 
Q 1534 2075 1959 2075 
z
" transform="scale(0.015625)"/>
      <path id="DejaVuSans-2e" d="M 684 794 
L 1344 794 
L 1344 0 
L 684 0 
L 684 794 
z
" transform="scale(0.015625)"/>
      <path id="DejaVuSans-37" d="M 525 4666 
L 3525 4666 
L 3525 4397 
L 1831 0 
L 1172 0 
L 2766 4134 
L 525 4134 
L 525 4666 
z
" transform="scale(0.015625)"/>
     </defs>
     <use xlink:href="#DejaVuSans-4d"/>
     <use xlink:href="#DejaVuSans-65" transform="translate(86.279297 0)"/>
     <use xlink:href="#DejaVuSans-6d" transform="translate(147.802734 0)"/>
     <use xlink:href="#DejaVuSans-6f" transform="translate(245.214844 0)"/>
     <use xlink:href="#DejaVuSans-72" transform="translate(306.396484 0)"/>
     <use xlink:href="#DejaVuSans-79" transform="translate(347.509766 0)"/>
     <use xlink:href="#DejaVuSans-20" transform="translate(406.689453 0)"/>
     <use xlink:href="#DejaVuSans-42" transform="translate(438.476562 0)"/>
     <use xlink:href="#DejaVuSans-6f" transform="translate(507.080078 0)"/>
     <use xlink:href="#DejaVuSans-75" transform="translate(568.261719 0)"/>
     <use xlink:href="#DejaVuSans-6e" transform="translate(631.640625 0)"/>
     <use xlink:href="#DejaVuSans-64" transform="translate(695.019531 0)"/>
     <use xlink:href="#DejaVuSans-20" transform="translate(758.496094 0)"/>
     <use xlink:href="#DejaVuSans-31" transform="translate(790.283203 0)"/>
     <use xlink:href="#DejaVuSans-39" transform="translate(853.90625 0)"/>
     <use xlink:href="#DejaVuSans-2e" transform="translate(917.529297 0)"/>
     <use xlink:href="#DejaVuSans-30" transform="translate(949.316406 0)"/>
     <use xlink:href="#DejaVuSans-37" transform="translate(1012.939453 0)"/>
     <use xlink:href="#DejaVuSans-20" transform="translate(1076.5625 0)"/>
     <use xlink:href="#DejaVuSans-47" transform="translate(1108.349609 0)"/>
     <use xlink:href="#DejaVuSans-42" transform="translate(1185.839844 0)"/>
     <use xlink:href="#DejaVuSans-2f" transform="translate(1254.443359 0)"/>
     <use xlink:href="#DejaVuSans-73" transform="translate(1288.134766 0)"/>
    </g>
   </g>
   <g id="text_13">
    <!-- Compute Bound 58.31 GFLOP/s -->
    <g style="fill: #ff0000" transform="translate(195.359708 94.838768) scale(0.1 -0.1)">
     <defs>
      <path id="DejaVuSans-43" d="M 4122 4306 
L 4122 3641 
Q 3803 3938 3442 4084 
Q 3081 4231 2675 4231 
Q 1875 4231 1450 3742 
Q 1025 3253 1025 2328 
Q 1025 1406 1450 917 
Q 1875 428 2675 428 
Q 3081 428 3442 575 
Q 3803 722 4122 1019 
L 4122 359 
Q 3791 134 3420 21 
Q 3050 -91 2638 -91 
Q 1578 -91 968 557 
Q 359 1206 359 2328 
Q 359 3453 968 4101 
Q 1578 4750 2638 4750 
Q 3056 4750 3426 4639 
Q 3797 4528 4122 4306 
z
" transform="scale(0.015625)"/>
      <path id="DejaVuSans-70" d="M 1159 525 
L 1159 -1331 
L 581 -1331 
L 581 3500 
L 1159 3500 
L 1159 2969 
Q 1341 3281 1617 3432 
Q 1894 3584 2278 3584 
Q 2916 3584 3314 3078 
Q 3713 2572 3713 1747 
Q 3713 922 3314 415 
Q 2916 -91 2278 -91 
Q 1894 -91 1617 61 
Q 1341 213 1159 525 
z
M 3116 1747 
Q 3116 2381 2855 2742 
Q 2594 3103 2138 3103 
Q 1681 3103 1420 2742 
Q 1159 2381 1159 1747 
Q 1159 1113 1420 752 
Q 1681 391 2138 391 
Q 2594 391 2855 752 
Q 3116 1113 3116 1747 
z
" transform="scale(0.015625)"/>
      <path id="DejaVuSans-35" d="M 691 4666 
L 3169 4666 
L 3169 4134 
L 1269 4134 
L 1269 2991 
Q 1406 3038 1543 3061 
Q 1681 3084 1819 3084 
Q 2600 3084 3056 2656 
Q 3513 2228 3513 1497 
Q 3513 744 3044 326 
Q 2575 -91 1722 -91 
Q 1428 -91 1123 -41 
Q 819 9 494 109 
L 494 744 
Q 775 591 1075 516 
Q 1375 441 1709 441 
Q 2250 441 2565 725 
Q 2881 1009 2881 1497 
Q 2881 1984 2565 2268 
Q 2250 2553 1709 2553 
Q 1456 2553 1204 2497 
Q 953 2441 691 2322 
L 691 4666 
z
" transform="scale(0.015625)"/>
      <path id="DejaVuSans-38" d="M 2034 2216 
Q 1584 2216 1326 1975 
Q 1069 1734 1069 1313 
Q 1069 891 1326 650 
Q 1584 409 2034 409 
Q 2484 409 2743 651 
Q 3003 894 3003 1313 
Q 3003 1734 2745 1975 
Q 2488 2216 2034 2216 
z
M 1403 2484 
Q 997 2584 770 2862 
Q 544 3141 544 3541 
Q 544 4100 942 4425 
Q 1341 4750 2034 4750 
Q 2731 4750 3128 4425 
Q 3525 4100 3525 3541 
Q 3525 3141 3298 2862 
Q 3072 2584 2669 2484 
Q 3125 2378 3379 2068 
Q 3634 1759 3634 1313 
Q 3634 634 3220 271 
Q 2806 -91 2034 -91 
Q 1263 -91 848 271 
Q 434 634 434 1313 
Q 434 1759 690 2068 
Q 947 2378 1403 2484 
z
M 1172 3481 
Q 1172 3119 1398 2916 
Q 1625 2713 2034 2713 
Q 2441 2713 2670 2916 
Q 2900 3119 2900 3481 
Q 2900 3844 2670 4047 
Q 2441 4250 2034 4250 
Q 1625 4250 1398 4047 
Q 1172 3844 1172 3481 
z
" transform="scale(0.015625)"/>
      <path id="DejaVuSans-33" d="M 2597 2516 
Q 3050 2419 3304 2112 
Q 3559 1806 3559 1356 
Q 3559 666 3084 287 
Q 2609 -91 1734 -91 
Q 1441 -91 1130 -33 
Q 819 25 488 141 
L 488 750 
Q 750 597 1062 519 
Q 1375 441 1716 441 
Q 2309 441 2620 675 
Q 2931 909 2931 1356 
Q 2931 1769 2642 2001 
Q 2353 2234 1838 2234 
L 1294 2234 
L 1294 2753 
L 1863 2753 
Q 2328 2753 2575 2939 
Q 2822 3125 2822 3475 
Q 2822 3834 2567 4026 
Q 2313 4219 1838 4219 
Q 1578 4219 1281 4162 
Q 984 4106 628 3988 
L 628 4550 
Q 988 4650 1302 4700 
Q 1616 4750 1894 4750 
Q 2613 4750 3031 4423 
Q 3450 4097 3450 3541 
Q 3450 3153 3228 2886 
Q 3006 2619 2597 2516 
z
" transform="scale(0.015625)"/>
     </defs>
     <use xlink:href="#DejaVuSans-43"/>
     <use xlink:href="#DejaVuSans-6f" transform="translate(69.824219 0)"/>
     <use xlink:href="#DejaVuSans-6d" transform="translate(131.005859 0)"/>
     <use xlink:href="#DejaVuSans-70" transform="translate(228.417969 0)"/>
     <use xlink:href="#DejaVuSans-75" transform="translate(291.894531 0)"/>
     <use xlink:href="#DejaVuSans-74" transform="translate(355.273438 0)"/>
     <use xlink:href="#DejaVuSans-65" transform="translate(394.482422 0)"/>
     <use xlink:href="#DejaVuSans-20" transform="translate(456.005859 0)"/>
     <use xlink:href="#DejaVuSans-42" transform="translate(487.792969 0)"/>
     <use xlink:href="#DejaVuSans-6f" transform="translate(556.396484 0)"/>
     <use xlink:href="#DejaVuSans-75" transform="translate(617.578125 0)"/>
     <use xlink:href="#DejaVuSans-6e" transform="translate(680.957031 0)"/>
     <use xlink:href="#DejaVuSans-64" transform="translate(744.335938 0)"/>
     <use xlink:href="#DejaVuSans-20" transform="translate(807.8125 0)"/>
     <use xlink:href="#DejaVuSans-35" transform="translate(839.599609 0)"/>
     <use xlink:href="#DejaVuSans-38" transform="translate(903.222656 0)"/>
     <use xlink:href="#DejaVuSans-2e" transform="translate(966.845703 0)"/>
     <use xlink:href="#DejaVuSans-33" transform="translate(998.632812 0)"/>
     <use xlink:href="#DejaVuSans-31" transform="translate(1062.255859 0)"/>
     <use xlink:href="#DejaVuSans-20" transform="translate(1125.878906 0)"/>
     <use xlink:href="#DejaVuSans-47" transform="translate(1157.666016 0)"/>
     <use xlink:href="#DejaVuSans-46" transform="translate(1235.15625 0)"/>
     <use xlink:href="#DejaVuSans-4c" transform="translate(1292.675781 0)"/>
     <use xlink:href="#DejaVuSans-4f" transform="translate(1344.763672 0)"/>
     <use xlink:href="#DejaVuSans-50" transform="translate(1423.474609 0)"/>
     <use xlink:href="#DejaVuSans-2f" transform="translate(1483.777344 0)"/>
     <use xlink:href="#DejaVuSans-73" transform="translate(1517.46875 0)"/>
    </g>
   </g>
  </g>
 </g>
 <defs>
  <clipPath id="p4c172df1e2">
   <rect x="57.6" y="41.472" width="357.12" height="266.112"/>
  </clipPath>
 </defs>
</svg>
